<?xml version="1.0" standalone="no"?>
<!DOCTYPE svg PUBLIC "-//W3C//DTD SVG 1.1//EN" "http://www.w3.org/Graphics/SVG/1.1/DTD/svg11.dtd" >
<svg>
<metadata>
Created by FontForge 20090622 at Fri Sep  9 04:24:23 2016
 By deploy user
Copyright (c) 2007 by Worachet Deeyai. All rights reserved.
</metadata>
<defs>
<font id="BangnaNew" horiz-adv-x="622" >
  <font-face 
    font-family="Bangna New"
    font-weight="400"
    font-style="italic"
    font-stretch="normal"
    units-per-em="1000"
    panose-1="2 0 5 6 0 0 0 2 0 4"
    ascent="800"
    descent="-200"
    x-height="527"
    cap-height="733"
    bbox="-566 -516 1004 1045"
    underline-thickness="48"
    underline-position="-52"
    slope="-10"
    unicode-range="U+0020-U+25CC"
  />
<missing-glyph horiz-adv-x="562" 
d="M60 839h442v-814v-24h-442v838zM108 791v-742h346v742h-346z" />
    <glyph glyph-name="quotedblleft" unicode="&#x91;&#x91;" horiz-adv-x="350" 
d="M188 548q1 8 2.5 15.5t4.5 14.5q4 11 11 19t15 16q9 7 18 11q1 0 11 4q4 2 10 3v-50q-12 -6 -21 -21q21 -10 21 -32q0 -15 -10.5 -25.5t-25.5 -10.5q-9 0 -15 3q-11 5 -15 13.5t-6 19.5v20zM90 548q1 8 2.5 15.5t4.5 14.5q4 11 11 19t15 16q9 7 18 11q1 0 11 4q4 2 10 3
v-50q-12 -6 -21 -21q21 -10 21 -32q0 -15 -10.5 -25.5t-25.5 -10.5q-9 0 -15 3q-11 5 -15 13.5t-6 19.5v20z" />
    <glyph glyph-name="quotedblright" unicode="&#x92;&#x92;" horiz-adv-x="350" 
d="M162 574q-1 -7 -2.5 -14.5t-3.5 -14.5q-7 -20 -27 -35q-8 -8 -18 -12q-1 -1 -11 -3q-4 -1 -10 -3v50q15 7 21 20q-21 10 -21 33q0 15 10.5 25.5t25.5 10.5q7 0 15 -4q11 -5 15.5 -13t5.5 -19v-21zM260 574q-1 -7 -2.5 -14.5t-3.5 -14.5q-7 -20 -27 -35q-8 -8 -18 -12
q-1 -1 -11 -3q-4 -1 -10 -3v50q15 7 21 20q-21 10 -21 33q0 15 10.5 25.5t25.5 10.5q7 0 15 -4q11 -5 15.5 -13t5.5 -19v-21z" />
    <glyph glyph-name="rulakkhangyao" unicode="&#xc4;&#xd2;" horiz-adv-x="1022" 
d="M711 641q46 0 86 -17.5t70 -47.5t47.5 -70t17.5 -86v-688h-48v688q0 36 -13.5 67.5t-37 55t-55 37t-67.5 13.5t-67 -13.5t-54.5 -37t-37.5 -54.5t-14 -67v-1v-420v-268h-48v268v420v2q0 35 -14 66t-37.5 54.5t-54.5 37t-67 13.5q-54 0 -96 -28.5t-62 -74.5l-21 -42l6 -40
v-211v-61v-42q0 -25 9 -46h124v-48h-150q-1 1 -1 1.5t-1 1.5q-6 8 -10.5 17t-8.5 18q-10 26 -10 56v326l-6 40l27 54l3 6q27 54 79.5 87.5t117.5 33.5t117 -33.5t80 -87.5q27 54 79.5 87.5t117.5 33.5z" />
    <glyph glyph-name="lulakkhangyao" unicode="&#xc6;&#xd2;" horiz-adv-x="1013" 
d="M702 641q46 0 86 -17.5t70 -47.5t47.5 -70t17.5 -86v-688h-48v688q0 36 -13.5 67.5t-37 55t-55 37t-67.5 13.5q-35 0 -65.5 -13t-53.5 -35t-37.5 -51.5t-16.5 -63.5v-7v-3v-420v-268h-48v268v420v9q-1 34 -15 64t-37.5 52t-54.5 35t-66 13q-53 0 -95.5 -28t-62.5 -73
l-21 -42l6 -39v1v-365v-39v-8h-105v47h57v376l-6 39l27 54l3 6q28 54 80 86.5t117 32.5t117.5 -33t79.5 -87q28 54 80 87t117 33z" />
    <glyph glyph-name="copyright2" unicode="&#x3b;&#x3b;For&#x20;Education&#x20;Used&#x20;Only&#x3b;&#x3b;" horiz-adv-x="815" 
d="M408 631q76 0 143 -29t116.5 -79t78.5 -117t29 -143t-29 -143t-78.5 -116.5t-116.5 -78.5t-143 -29t-143 29t-117 78.5t-79 116.5t-29 143t29 143t79 117t117 79t143 29zM408 -57q66 0 124 25t101.5 68.5t68.5 102t25 124.5t-25 124t-68.5 101.5t-101.5 68.5t-124 25
t-124.5 -25t-102 -68.5t-68.5 -101.5t-25 -124t25 -124.5t68.5 -102t102 -68.5t124.5 -25zM408 48q36 0 67.5 13.5t55 37t37 55t13.5 67.5h48q0 -46 -17.5 -86t-47.5 -70t-70 -47.5t-86 -17.5t-86 17.5t-70 47.5t-47.5 70t-17.5 86v84q0 46 17.5 86.5t47.5 70.5t70 47.5
t86 17.5t86 -17.5t70 -47.5t47.5 -70t17.5 -86h-48q0 36 -13.5 67.5t-37 55t-55 37t-67.5 13.5t-67.5 -13.5t-55 -37.5t-37 -55.5t-13.5 -67.5v-84q0 -36 13.5 -67.5t37 -55t55 -37t67.5 -13.5z" />
    <glyph glyph-name="registered2" unicode="&#x3b;&#x3b;Registered&#x3b;&#x3b;" horiz-adv-x="815" 
d="M407 631q76 0 143 -29t117 -79t79 -117t29 -143t-29 -142.5t-79 -116.5t-117 -79t-143 -29t-142.5 29t-116.5 79t-79 116.5t-29 142.5t29 143t79 117t116.5 79t142.5 29zM407 -56q66 0 124.5 25t102 68.5t68.5 101.5t25 124t-25 124t-68.5 101.5t-102 69t-124.5 25.5
t-124 -25.5t-101.5 -69t-68.5 -101.5t-25 -124t25 -124t68.5 -101.5t101.5 -68.5t124 -25zM636 379q-5 -56 -46 -94h1q-26 -25 -62 -34l86 -227l-45 -17l-91 239h-12h-6h-1h-47h-88h-37v-191v-48h-48v48v191v48v192v48h30h19h124h48h31h7q28 -1 53.5 -12.5t44 -31t29.5 -45
t11 -54.5q0 -3 -0.5 -6t-0.5 -6zM588 390v1q0 19 -7.5 36.5t-20.5 30.5t-30.5 20.5t-36.5 7.5h-1h-31h-48h-97h-28v-192h28h97h47h1h31h1q19 0 38 8q24 11 39.5 32.5t17.5 48.5v7z" />
    <glyph glyph-name="trademark2" unicode="&#x3b;&#x3b;Trademark&#x3b;&#x3b;" horiz-adv-x="608" 
d="M139 630h64h16v-16v-16v-16h-16h-49v-249v-16h-16h-16h-16v16v249h-50h-16v16v16v16h16h67h16zM532 630h16v-16v-281v-16h-16h-16h-16v16v136l-48 -141l-3 -11h-12h-1h-16h-1h-11l-4 11l-50 143v-138v-16h-16h-16h-16v16v281v16h16h17h11l4 -11l74 -213l72 211v13h16h16z
" />
    <glyph glyph-name="multiply2" unicode="&#x3b;&#x3b;Multiply&#x3b;&#x3b;" horiz-adv-x="435" 
d="M341 480l34 -34l-123 -123l123 -123l-34 -34l-123 123l-124 -123l-34 34l124 123l-124 123l34 34l124 -123l123 123v0z" />
    <glyph glyph-name="divide2" unicode="&#x3b;&#x3b;Divide&#x3b;&#x3b;" horiz-adv-x="433" 
d="M252 412q0 -15 -10.5 -25.5t-25.5 -10.5t-25.5 10.5t-10.5 25.5t10.5 25.5t25.5 10.5t25.5 -10.5t10.5 -25.5zM252 234q0 -15 -10.5 -25.5t-25.5 -10.5t-25.5 10.5t-10.5 25.5t10.5 25.5t25.5 10.5t25.5 -10.5t10.5 -25.5zM60 299v48h313v-48h-313z" />
    <glyph glyph-name=".notdef" horiz-adv-x="562" 
d="M60 839h442v-814v-24h-442v838zM108 791v-742h346v742h-346z" />
    <glyph glyph-name=".null" horiz-adv-x="0" 
 />
    <glyph glyph-name="nonmarkingreturn" horiz-adv-x="283" 
 />
    <glyph glyph-name="space" unicode=" " horiz-adv-x="337" 
 />
    <glyph glyph-name="exclam" unicode="!" horiz-adv-x="252" 
d="M162 36q0 -15 -10.5 -25.5t-25.5 -10.5t-25.5 10.5t-10.5 25.5t10.5 25.5t25.5 10.5t25.5 -10.5t10.5 -25.5zM151 112h-48v568h48v-568z" />
    <glyph glyph-name="quotedbl" unicode="&#x22;" horiz-adv-x="323" 
d="M138 542h-48v132h48v-132zM233 542h-48v132h48v-132z" />
    <glyph glyph-name="numbersign" unicode="#" horiz-adv-x="448" 
d="M398 356h-74l-27 -61h66v-48h-88l-33 -74l-44 20l24 54h-67l-33 -74l-44 20l25 54h-53v48h74l28 61h-67v48h89l33 74l44 -20l-25 -54h67l33 73l44 -19l-24 -54h52v-48zM244 295l27 61h-66l-28 -61h67z" />
    <glyph glyph-name="dollar" unicode="$" horiz-adv-x="623" 
d="M437 259q28 -8 49 -26t34 -43q13 -29 13 -58q0 -27 -10.5 -51t-28.5 -42t-42 -28.5t-51 -10.5h-65v-61h-48v61h-67v1q-27 0 -51 10t-42 28t-28 42t-10 51h48q0 -35 24.5 -59t58.5 -24v-1h67h48h65q35 0 59 24.5t24 59.5q0 29 -17.5 51t-43.5 30l-5 1l-17 4l-201 47
q-5 1 -8.5 2t-8.5 2q-55 17 -80 69q-13 28 -13 57q0 27 10 51t28 42t42 28.5t51 10.5h67v61h48v-61h65q27 0 51 -10.5t42 -28.5t28.5 -42t10.5 -51h-48h-1q0 17 -6.5 32.5t-17.5 27t-26 18t-33 6.5h-65h-48h-67q-17 0 -32.5 -6.5t-26.5 -18t-17.5 -26.5t-6.5 -33
q0 -28 16 -49.5t41 -29.5l14 -3l12 -3l205 -49q5 0 11 -2z" />
    <glyph glyph-name="percent" unicode="%" horiz-adv-x="520" 
d="M286 250q-12 -27 -1.5 -55t37.5 -40t55 -1.5t40 37.5q13 27 2.5 55t-37.5 40q-28 13 -55.5 2.5t-40.5 -38.5zM373 211q-5 -9 -14 -12.5t-18 0.5q-9 5 -12.5 14t0.5 18q5 9 14 12.5t18 -0.5q9 -5 12.5 -14t-0.5 -18zM102 490q-12 -27 -1.5 -55t37.5 -40t55 -1.5t40 37.5
q13 27 2.5 55t-37.5 40q-28 13 -55.5 2.5t-40.5 -38.5zM189 451q-5 -9 -14 -12.5t-18 0.5q-9 5 -12.5 14t0.5 18q5 9 14 12.5t18 -0.5q9 -5 12.5 -14t-0.5 -18zM162 67l-44 20l240 527l43 -19z" />
    <glyph glyph-name="ampersand" unicode="&#x26;" horiz-adv-x="760" 
d="M670 14l-20 -14l-19 -14l-91 128l-86 -61q-7 -6 -14.5 -11.5t-15.5 -10.5l-10.5 -6t-10.5 -5q-43 -20 -92 -20q-46 0 -86 17.5t-70 47.5t-47.5 70t-17.5 86q0 43 15.5 81.5t41.5 67.5l3.5 3.5l3.5 3.5l57 41l76 56l-57 81l-28 39v1q-18 34 -18 76q0 35 13.5 66t36.5 54
t53.5 36.5t65.5 13.5t66 -13.5t54 -36.5t36.5 -54t13.5 -66q0 -34 -12.5 -64t-33.5 -53q-3 -2 -9 -8l-31 -23l-84 -60l21 -30l158 -223l20 -28l63 45l14 -19l14 -20l-64 -46zM324 504q3 0 4 -1l84 61l25 19q17 17 27.5 39.5t10.5 48.5q0 25 -9.5 47.5t-26 39t-39 26
t-47.5 9.5t-47 -9.5t-38.5 -26t-26 -39t-9.5 -47.5q0 -29 12 -53l22 -32zM513 154l-31 43l-136 194l-31 43l-80 -58l-48 -34q-23 -24 -36 -55t-13 -66q0 -36 13.5 -67.5t37 -55t55 -37t67.5 -13.5q24 0 45.5 6.5t41.5 17.5l26 18z" />
    <glyph glyph-name="quotesingle" unicode="'" horiz-adv-x="228" 
d="M138 542h-48v132h48v-132z" />
    <glyph glyph-name="parenleft" unicode="(" horiz-adv-x="342" 
d="M312 -92q-46 0 -86 17.5t-70 47.5t-47.5 70t-17.5 86h-1v583h1q0 46 17.5 86t47.5 70t70 47.5t86 17.5v-48q-36 0 -67.5 -13.5t-55 -37t-37 -55t-13.5 -67.5h-1v-583h1q0 -36 13.5 -67.5t37 -55t54.5 -37t67 -13.5h1v-48z" />
    <glyph glyph-name="parenright" unicode=")" horiz-adv-x="342" 
d="M30 -44h1q36 0 67 13.5t54.5 37t37 55t13.5 67.5h1v583h-1q0 36 -13.5 67.5t-37 55t-55 37t-67.5 13.5v48q46 0 86 -17.5t70 -47.5t47.5 -70t17.5 -86h1v-583h-1q0 -46 -17.5 -86t-47.5 -70t-70 -47.5t-86 -17.5v48z" />
    <glyph glyph-name="asterisk" unicode="*" horiz-adv-x="577" 
d="M487 347v-48h-140l99 -99l-34 -34l-99 99v-141h-48v141l-100 -99l-34 34l100 99h-141v48h141l-100 99l34 34l100 -99v140h48v-140l99 99l34 -34l-99 -99h140z" />
    <glyph glyph-name="plus" unicode="+" horiz-adv-x="493" 
d="M403 347v-48h-133v-133h-48v133h-132v48h132v132h48v-132h133z" />
    <glyph glyph-name="comma" unicode="," horiz-adv-x="252" 
d="M162 36v-21.5t-4 -21.5q-7 -23 -25.5 -39t-42.5 -21v50q15 7 21 20q-21 10 -21 33q0 15 10.5 25.5t25.5 10.5t25.5 -10.5t10.5 -25.5z" />
    <glyph glyph-name="hyphen" unicode="-" horiz-adv-x="527" 
d="M90 257v48h347v-48h-347z" />
    <glyph glyph-name="period" unicode="." horiz-adv-x="252" 
d="M162 36q0 -15 -10.5 -25.5t-25.5 -10.5t-25.5 10.5t-10.5 25.5t10.5 25.5t25.5 10.5t25.5 -10.5t10.5 -25.5z" />
    <glyph glyph-name="slash" unicode="/" horiz-adv-x="498" 
d="M64 -70l-44 20l414 901l44 -20z" />
    <glyph glyph-name="zero" unicode="0" 
d="M532 211q0 -46 -17 -86t-47 -70t-70.5 -47.5t-86.5 -17.5t-86 17.5t-70 47.5t-47.5 70t-17.5 86v311q0 46 17.5 86t47.5 70t70 47.5t86 17.5t86.5 -17.5t70.5 -47.5t47 -70t17 -86v-311zM311 38q36 0 67.5 13.5t55 37t37 55t13.5 67.5v311q0 36 -13.5 67.5t-37 55t-55 37
t-67.5 13.5t-67.5 -13.5t-55 -37t-37 -55t-13.5 -67.5v-311q0 -36 13.5 -67.5t37 -55t55 -37t67.5 -13.5z" />
    <glyph glyph-name="one" unicode="1" horiz-adv-x="368" 
d="M207 733h1v-733h-48v625q-15 -14 -33.5 -23t-39.5 -13v50q32 8 52 34t20 60h48z" />
    <glyph glyph-name="two" unicode="2" horiz-adv-x="625" 
d="M535 48v-48h-445v48l351 359q20 23 31.5 52.5t11.5 62.5q0 36 -13.5 67.5t-37 55t-55 37t-67.5 13.5t-67.5 -13.5t-55 -37t-37 -55t-13.5 -67.5h-48q0 46 17.5 86t47.5 70t70 47.5t86 17.5t86 -17.5t70 -47.5t47.5 -70t17.5 -86v-12.5t-1 -12.5q-4 -35 -18 -65.5
t-36 -55.5l-319 -328h377z" />
    <glyph glyph-name="three" unicode="3" 
d="M404 422q57 -26 92.5 -79.5t35.5 -131.5q0 -46 -17.5 -86t-47.5 -70t-70 -47.5t-86 -17.5t-86 17.5t-70 47.5t-47.5 70t-17.5 86h48q0 -36 13.5 -67.5t37 -55t55 -37t67.5 -13.5t67.5 13.5t55 37t37 55t13.5 67.5q0 43 -13.5 76.5t-37 56.5t-55 35.5t-67.5 14.5h-1v48h1
h4q24 1 45.5 10.5t37.5 25.5q16 17 25 44t9 52t-9.5 47t-26 38.5t-38.5 26t-47 9.5t-47 -9.5t-38.5 -26t-26 -38.5t-9.5 -47h-48q0 34 13.5 65t36.5 54t53.5 36.5t65.5 13.5q34 0 65 -13.5t54 -36.5t36.5 -54t13.5 -65q0 -55 -20.5 -92t-55.5 -60z" />
    <glyph glyph-name="four" unicode="4" horiz-adv-x="652" 
d="M514 126h48v-48h-48v-78h-48v78h-372h-24v48v0v0v0l396 607h1h12h35v-607zM127 126h339v519z" />
    <glyph glyph-name="five" unicode="5" horiz-adv-x="625" 
d="M139 685v-242q30 38 75 61t99 23q46 0 86.5 -17.5t70.5 -47.5t47.5 -70.5t17.5 -86.5v-93q0 -46 -17.5 -86.5t-47.5 -70.5t-70.5 -47.5t-86.5 -17.5t-86.5 17.5t-71 47.5t-48 70.5t-17.5 86.5h49q0 -36 13.5 -67.5t37.5 -55.5t55.5 -37.5t67.5 -13.5t67.5 13.5t55.5 37.5
t37.5 55.5t13.5 67.5v93q0 36 -13.5 67.5t-37.5 55.5t-55.5 37.5t-67.5 13.5q-54 0 -97.5 -29.5t-63.5 -77.5h-61v361h424v-48h-376z" />
    <glyph glyph-name="six" unicode="6" 
d="M311 432q46 0 86 -17.5t70 -47.5t47.5 -70t17.5 -86t-17.5 -86t-47.5 -70t-70 -47.5t-86 -17.5q-38 0 -72 12t-62 33.5t-48.5 50.5t-30.5 64q-8 30 -8 61q0 45 17 85v1l177 436h52l-132 -329q48 28 107 28zM484 211q0 36 -13.5 67.5t-37 55t-55 37t-67.5 13.5
t-67.5 -13.5t-55 -37t-37 -55t-13.5 -67.5t13.5 -67.5t37 -55t55 -37t67.5 -13.5t67.5 13.5t55 37t37 55t13.5 67.5z" />
    <glyph glyph-name="seven" unicode="7" horiz-adv-x="605" 
d="M515 685v0l-284 -685h-52l284 685h-393v48h445v-48z" />
    <glyph glyph-name="eight" unicode="8" 
d="M404 422q57 -26 92.5 -80t35.5 -131q0 -46 -17.5 -86t-47.5 -70t-70 -47.5t-86 -17.5t-86 17.5t-70 47.5t-47.5 70t-17.5 86q0 42 9.5 73.5t26.5 57.5t40.5 46.5t52.5 33.5q-35 23 -56 60t-21 92q0 35 13.5 65.5t36.5 53.5t53.5 36.5t65.5 13.5t65.5 -13.5t53.5 -36.5
t36.5 -53.5t13.5 -65.5q0 -55 -20.5 -92t-55.5 -60zM190 574q0 -25 9 -52t25 -43.5t37.5 -26t45.5 -10.5h4h4q24 1 45.5 10.5t37.5 26t25 43.5t9 52t-9.5 47t-26 38.5t-38.5 26t-47 9.5t-47 -9.5t-38.5 -26t-26 -38.5t-9.5 -47zM484 211q0 45 -13.5 77t-37 55.5t-55 37
t-67.5 13.5t-67.5 -13.5t-55 -37t-37 -55.5t-13.5 -77q0 -36 13.5 -67.5t37 -55t55 -37t67.5 -13.5t67.5 13.5t55 37t37 55t13.5 67.5z" />
    <glyph glyph-name="nine" unicode="9" 
d="M311 301q-46 0 -86 17.5t-70 47.5t-47.5 70t-17.5 86t17.5 86t47.5 70t70 47.5t86 17.5q38 0 72 -12t62 -33.5t48 -51t30 -64.5q9 -29 9 -60q0 -44 -17 -86h-1l-176 -436h-52l132 328q-24 -13 -51 -20t-56 -7zM138 522q0 -36 13.5 -67.5t37 -55t55 -37t67.5 -13.5
t67.5 13.5t55 37t37 55t13.5 67.5t-13.5 67.5t-37 55t-55 37t-67.5 13.5t-67.5 -13.5t-55 -37t-37 -55t-13.5 -67.5z" />
    <glyph glyph-name="colon" unicode=":" horiz-adv-x="252" 
d="M162 456q0 -15 -10.5 -25.5t-25.5 -10.5t-25.5 10.5t-10.5 25.5t10.5 25.5t25.5 10.5t25.5 -10.5t10.5 -25.5zM162 159q0 -15 -10.5 -25.5t-25.5 -10.5t-25.5 10.5t-10.5 25.5t10.5 25.5t25.5 10.5t25.5 -10.5t10.5 -25.5z" />
    <glyph glyph-name="semicolon" unicode=";" horiz-adv-x="252" 
d="M162 456q0 -15 -10.5 -25.5t-25.5 -10.5t-25.5 10.5t-10.5 25.5t10.5 25.5t25.5 10.5t25.5 -10.5t10.5 -25.5zM162 149q0 15 -10.5 25.5t-25.5 10.5t-25.5 -10.5t-10.5 -25.5q0 -23 21 -33q-6 -13 -21 -20v-50q24 5 42.5 21t25.5 39q4 11 4 21.5v21.5z" />
    <glyph glyph-name="less" unicode="&#x3c;" horiz-adv-x="435" 
d="M90 319v0v0l221 221l34 -34l-187 -187l187 -188l-34 -34z" />
    <glyph glyph-name="equal" unicode="=" horiz-adv-x="493" 
d="M90 249v48h313v-48h-313zM90 348v48h313v-48h-313z" />
    <glyph glyph-name="greater" unicode="&#x3e;" horiz-adv-x="435" 
d="M345 319v0v0l-221 -222l-34 34l187 188l-187 187l34 34z" />
    <glyph glyph-name="question" unicode="?" horiz-adv-x="472" 
d="M279 36q0 -15 -10.5 -25.5t-25.5 -10.5t-25.5 10.5t-10.5 25.5t10.5 25.5t25.5 10.5t25.5 -10.5t10.5 -25.5zM382 534q0 -43 -16 -83.5t-48 -72.5q-24 -24 -37.5 -55.5t-13.5 -67.5v-143h-48v143q0 46 17 86t47 70q26 26 38.5 57.5t12.5 65.5q0 41 -28 69.5t-70 28.5
q-41 0 -69 -28.5t-28 -69.5h-49q0 30 11.5 57t31 46.5t46.5 31t57 11.5t57 -11.5t46.5 -31t31 -46.5t11.5 -57z" />
    <glyph glyph-name="at" unicode="@" horiz-adv-x="875" 
d="M805 263q0 -103 -46 -144q-26 -24 -63 -24q-3 0 -6 0.5t-6 0.5q-28 3 -44 21q-5 -9 -10.5 -17.5t-12.5 -16.5v1q-26 -34 -64 -56t-83 -27h-6h-1q-3 0 -5 -1h-1h-6h-1h-6h-63q-33 0 -61.5 12.5t-49.5 34t-33.5 50t-12.5 61.5q0 48 24 84q29 48 82 65q3 2 6.5 2.5t6.5 1.5
l165 49l25 7l12 3q26 11 44 30q-23 35 -61 57t-84 22q-36 0 -67.5 -13.5t-55 -37t-37 -55t-13.5 -67.5h-48q0 46 17.5 86t47.5 70t70 47.5t86 17.5q52 0 96 -21.5t74 -58.5q10 -11 17.5 -23.5t14.5 -26.5h-1q20 -43 20 -91v-77v-8v-11q0 -5 -0.5 -9.5t-1.5 -9.5q0 -9 2 -20
t8 -19q5 -6 16 -8q22 -3 38 10q14 14 22.5 42t8.5 67q0 67 -25 125.5t-68.5 102t-102 68.5t-124.5 25t-124.5 -25t-102 -68.5t-69 -102t-25.5 -125.5q0 -66 25.5 -124.5t69 -102t102 -68.5t124.5 -25t124 25t102 69l33 -33q-50 -51 -116.5 -79.5t-143.5 -28.5
q-76 0 -142.5 29t-116.5 79t-79 116.5t-29 142.5t29 143t79 117t116.5 79t142.5 29t143 -29t117 -79t79 -117t29 -143zM487 53q51 14 85.5 51.5t42.5 89.5q1 5 1 8t1 4v15v85q0 25 -6 48q-23 -20 -52 -29q-3 -2 -6.5 -2.5t-7.5 -2.5l-164 -48l-28 -8l-5 -1
q-33 -11 -54.5 -39.5t-21.5 -65.5q0 -23 8.5 -42.5t23.5 -34.5t34.5 -24t42.5 -9h63q21 0 43 5z" />
    <glyph glyph-name="A" unicode="A" horiz-adv-x="642" 
d="M522 0l-47 159h-308l-47 -159h-50l215 733h72l215 -733h-50zM181 207h280l-140 478z" />
    <glyph glyph-name="B" unicode="B" horiz-adv-x="670" 
d="M451 379q28 -10 51.5 -28t41 -42t27 -53t9.5 -61q0 -41 -15.5 -76.5t-42 -61.5t-62.5 -41.5t-76 -15.5h-294v733h246q40 0 76 -15.5t62.5 -42t42 -62.5t15.5 -76q0 -49 -22 -90t-59 -68zM138 685v-295h198q31 0 58 11.5t47 31.5t31.5 47t11.5 57q0 31 -11.5 58t-31.5 47
t-47 31.5t-58 11.5h-198zM384 48q31 0 58 11.5t47 31.5t31.5 47t11.5 57q0 31 -11.5 57.5t-32 46.5t-47.5 31.5t-57 11.5h-246v-294h246z" />
    <glyph glyph-name="C" unicode="C" 
d="M311 743q46 0 86 -17.5t70 -47.5t47.5 -70t17.5 -86h-48q0 36 -13.5 67.5t-37 55t-55 37t-67.5 13.5t-67.5 -13.5t-55 -37t-37 -55t-13.5 -67.5v-311q0 -36 13.5 -67.5t37 -55t55 -37t67.5 -13.5t67.5 13.5t55 37t37 55t13.5 67.5h48q0 -46 -17.5 -86t-47.5 -70
t-70 -47.5t-86 -17.5t-86 17.5t-70 47.5t-47.5 70t-17.5 86v311q0 46 17.5 86t47.5 70t70 47.5t86 17.5z" />
    <glyph glyph-name="D" unicode="D" 
d="M311 733q46 0 86 -17.5t70 -47.5t47.5 -70t17.5 -86v-291q0 -46 -17.5 -86t-47.5 -70t-70 -47.5t-86 -17.5h-221v733h221zM484 512q0 36 -13.5 67.5t-37 55t-55 37t-67.5 13.5h-173v-637h173q36 0 67.5 13.5t55 37t37 55t13.5 67.5v291z" />
    <glyph glyph-name="E" unicode="E" 
d="M90 733h442v-48h-394v-294h394v-49h-394v-294h394v-48h-442v1v732z" />
    <glyph glyph-name="F" unicode="F" 
d="M138 342v-342h-48v733h442v-48h-394v-294h394v-49h-394z" />
    <glyph glyph-name="G" unicode="G" horiz-adv-x="623" 
d="M91 211h-1v311q0 46 17.5 86t47.5 70t70.5 47.5t86.5 17.5t86 -17.5t70 -47.5t47.5 -70t17.5 -86h-48q0 36 -13.5 67.5t-37 55t-55 37t-67.5 13.5t-67.5 -13.5t-55 -37t-37 -55t-13.5 -67.5v-311q0 -36 13.5 -67.5t37 -55t55 -37t67.5 -13.5t67.5 13.5t55 37t37 55
t13.5 67.5v133h-173v49h221v-182q0 -46 -17.5 -86t-47.5 -70t-70 -47.5t-86 -17.5t-86.5 17.5t-70.5 47.5t-47.5 70t-17.5 86h1z" />
    <glyph glyph-name="H" unicode="H" horiz-adv-x="623" 
d="M138 341v-341h-48v733h48v-343h346v343h49v-733h-49v341h-346z" />
    <glyph glyph-name="I" unicode="I" horiz-adv-x="228" 
d="M90 0v733h48v-733h-48z" />
    <glyph glyph-name="J" unicode="J" horiz-adv-x="582" 
d="M492 211q0 -46 -17.5 -86t-47.5 -70t-70 -47.5t-86 -17.5t-86 17.5t-70 47.5t-47.5 70t-17.5 86h48q0 -36 13.5 -67.5t37 -55t55 -37t67.5 -13.5t67.5 13.5t55 37t37 55t13.5 67.5v522h48v-522z" />
    <glyph glyph-name="K" unicode="K" horiz-adv-x="552" 
d="M532 733l-329 -366l329 -366h-65l-297 330l-32 -36v-295h-48v733h48v-366l329 366h65z" />
    <glyph glyph-name="L" unicode="L" horiz-adv-x="582" 
d="M138 733v-685h394v-48h-442v733h48z" />
    <glyph glyph-name="M" unicode="M" horiz-adv-x="810" 
d="M672 733h48v-733h-48v600l-234 -600h-66l-234 601v-601h-48v733h48l267 -685l267 685v0z" />
    <glyph glyph-name="N" unicode="N" 
d="M484 733h48v-721v-12h-48v0v0l-346 633v-633h-48v733h48l346 -633v633z" />
    <glyph glyph-name="O" unicode="O" 
d="M311 743q46 0 86 -17.5t70 -47.5t47.5 -70t17.5 -86v-311q0 -46 -17.5 -86t-47.5 -70t-70 -47.5t-86 -17.5t-86 17.5t-70 47.5t-47.5 70t-17.5 86v311q0 46 17.5 86t47.5 70t70 47.5t86 17.5zM484 522q0 36 -13.5 67.5t-37 55t-55 37t-67.5 13.5t-67.5 -13.5t-55 -37
t-37 -55t-13.5 -67.5v-311q0 -36 13.5 -67.5t37 -55t55 -37t67.5 -13.5t67.5 13.5t55 37t37 55t13.5 67.5v311z" />
    <glyph glyph-name="P" unicode="P" horiz-adv-x="630" 
d="M580 537q0 -41 -15.5 -76.5t-42 -61.5t-62.5 -41.5t-76 -15.5v1h-246v-343h-48v733h48h246q40 0 76 -15.5t62.5 -42t42 -62.5t15.5 -76zM532 537q0 31 -11.5 58t-31.5 47t-47 31.5t-58 11.5h-246v-294h246q31 0 58 11.5t47 31t31.5 46.5t11.5 57z" />
    <glyph glyph-name="Q" unicode="Q" 
d="M532 210q0 -47 -18 -88t-50 -71q33 -14 68 -14v-48q-30 0 -58 7.5t-52 21.5q-25 -14 -53 -21.5t-58 -7.5q-46 0 -86 17.5t-70 47.5t-47.5 70t-17.5 86v312q0 46 17.5 86t47.5 70t70 47.5t86 17.5t86 -17.5t70 -47.5t47.5 -70t17.5 -86v-312zM484 522q0 36 -13.5 67.5
t-37 55t-55 37t-67.5 13.5t-67.5 -13.5t-55 -37t-37 -55t-13.5 -67.5v-312q0 -36 13.5 -67.5t37 -55t55 -37t67.5 -13.5t67.5 13.5t55 37t37 55t13.5 67.5v312z" />
    <glyph glyph-name="R" unicode="R" horiz-adv-x="630" 
d="M528 1l-142 341h-2v1h-246v-343h-48v733h48h246q40 0 76 -15.5t62 -42t41.5 -62.5t15.5 -76q0 -34 -11 -64.5t-30 -55t-45.5 -42.5t-57.5 -26l145 -348h-52zM138 391h246q30 0 57 11.5t47 31t31.5 46.5t11.5 57q0 31 -11.5 58t-31.5 47t-46.5 31.5t-57.5 11.5h-246v-294z
" />
    <glyph glyph-name="S" unicode="S" horiz-adv-x="623" 
d="M431 346q21 -12 39.5 -29t32.5 -38t22 -45t8 -49q0 -41 -17.5 -76.5t-46 -61.5t-66.5 -41.5t-78 -15.5q-46 0 -88.5 17.5t-75 47.5t-52 70t-19.5 86h48q0 -36 15.5 -67.5t42 -55t60 -37t69.5 -13.5q31 0 59.5 11.5t51 31.5t36 47t13.5 57q0 14 -4 28t-10 26
q-17 34 -45.5 52t-62 32.5t-69.5 21t-67 17.5q-27 9 -52 26.5t-43.5 40t-29.5 50.5t-11 68t17 76t46 62.5t66 42t78 15.5q46 0 88.5 -17.5t75 -47.5t52 -70t19.5 -86h-48q0 36 -15.5 67.5t-42 55t-60 37t-69.5 13.5q-31 0 -59.5 -11.5t-51 -31.5t-36 -47t-13.5 -58
q0 -40 15 -65.5t37 -44.5q25 -22 54.5 -31t61.5 -15q32 -7 64 -19t61 -26z" />
    <glyph glyph-name="T" unicode="T" horiz-adv-x="542" 
d="M247 0v685h-197v48h197h48h197v-48h-197v-685h-48z" />
    <glyph glyph-name="U" unicode="U" 
d="M532 211q0 -46 -17.5 -86t-47.5 -70t-70 -47.5t-86 -17.5t-86 17.5t-70 47.5t-47.5 70t-17.5 86v522h48v-522q0 -36 13.5 -67.5t37 -55t55 -37t67.5 -13.5t67.5 13.5t55 37t37 55t13.5 67.5v522h48v-522z" />
    <glyph glyph-name="V" unicode="V" horiz-adv-x="602" 
d="M502 733h50l-215 -733h-72l-215 733h50l201 -685z" />
    <glyph glyph-name="W" unicode="W" horiz-adv-x="1054" 
d="M265 0l-215 733h50l201 -685l201 685h50l201 -685l201 685h50l-215 -733h-72l-190 648l-190 -648h-72z" />
    <glyph glyph-name="X" unicode="X" horiz-adv-x="600" 
d="M550 733l-222 -367l222 -366h-56l-194 320l-194 -320h-56l222 366l-222 367h56l194 -320l194 320h56z" />
    <glyph glyph-name="Y" unicode="Y" horiz-adv-x="600" 
d="M550 733l-222 -367l-4 -6v-360h-48v360l-4 6l-222 367h56l194 -320l194 320h56z" />
    <glyph glyph-name="Z" unicode="Z" horiz-adv-x="582" 
d="M512 733v-48l-386 -637h386v-48h-415h-27v48v0v0l386 637h-386v48h442z" />
    <glyph glyph-name="bracketleft" unicode="[" horiz-adv-x="318" 
d="M288 886h-150v-930h150v-48h-150h-48v48v930v48h48h150v-48z" />
    <glyph glyph-name="backslash" unicode="\" horiz-adv-x="498" 
d="M478 -50l-44 -20l-414 901l44 20z" />
    <glyph glyph-name="bracketright" unicode="]" horiz-adv-x="318" 
d="M30 -44h150v930h-150v48h150h48v-48v-930v-48h-48h-150v48z" />
    <glyph glyph-name="asciicircum" unicode="^" horiz-adv-x="523" 
d="M261 446v0v0l222 -221l-34 -34l-188 187l-187 -187l-34 34z" />
    <glyph glyph-name="underscore" unicode="_" horiz-adv-x="501" 
d="M30 -72v48h441v-48h-441z" />
    <glyph glyph-name="grave" unicode="`" horiz-adv-x="308" 
d="M218 578l-34 -34l-94 94l34 34z" />
    <glyph glyph-name="a" unicode="a" 
d="M532 211v-211h-48v74q-30 -38 -75 -61t-98 -23q-46 0 -86 17.5t-70 47.5t-47.5 70t-17.5 86v105q0 46 17.5 86t47.5 70t70 47.5t86 17.5t86 -17.5t70 -47.5t47.5 -70t17.5 -86v-105zM484 316q0 36 -13.5 67.5t-37 55t-55 37t-67.5 13.5t-67.5 -13.5t-55 -37t-37 -55
t-13.5 -67.5v-105q0 -36 13.5 -67.5t37 -55t55 -37t67.5 -13.5t67.5 13.5t55 37t37 55t13.5 67.5v105z" />
    <glyph glyph-name="b" unicode="b" 
d="M532 211q0 -46 -17.5 -86t-47.5 -70t-70 -47.5t-86 -17.5t-86 17.5t-70 47.5t-47.5 70t-17.5 86v95v427h48v-280q31 38 75.5 61t97.5 23q46 0 86 -17.5t70 -47.5t47.5 -70t17.5 -86v-105zM484 316q0 36 -13.5 67.5t-37 55t-55 37t-67.5 13.5t-67.5 -13.5t-55 -37t-37 -55
t-13.5 -67.5v-105q0 -36 13.5 -67.5t37 -55t55 -37t67.5 -13.5t67.5 13.5t55 37t37 55t13.5 67.5v105z" />
    <glyph glyph-name="c" unicode="c" horiz-adv-x="613" 
d="M523 149q-10 -35 -30.5 -64t-48 -50t-61.5 -33t-72 -12q-46 0 -86 17.5t-70 47.5t-47.5 70t-17.5 86v105q0 46 17.5 86t47.5 70t70 47.5t86 17.5q38 0 72 -12t62 -33.5t48 -51t30 -63.5h-50q-19 49 -62.5 80.5t-99.5 31.5q-36 0 -67.5 -13.5t-55 -37t-37 -55t-13.5 -67.5
v-105q0 -36 13.5 -67.5t37 -55t55 -37t67.5 -13.5q56 0 99 31t62 80h51z" />
    <glyph glyph-name="d" unicode="d" 
d="M532 211q0 -46 -17.5 -86t-47.5 -70t-70 -47.5t-86 -17.5t-86 17.5t-70 47.5t-47.5 70t-17.5 86v105q0 46 17.5 86t47.5 70t70 47.5t86 17.5q53 0 98 -23t75 -61v280h48v-417v-105zM484 316q0 36 -13.5 67.5t-37 55t-55 37t-67.5 13.5t-67.5 -13.5t-55 -37t-37 -55
t-13.5 -67.5v-105q0 -36 13.5 -67.5t37 -55t55 -37t67.5 -13.5t67.5 13.5t55 37t37 55t13.5 67.5v105z" />
    <glyph glyph-name="e" unicode="e" 
d="M524 149q-10 -35 -30.5 -64t-48.5 -50t-62 -33t-72 -12q-46 0 -86 17.5t-70 47.5t-47.5 70t-17.5 86v105q0 46 17.5 86t47.5 70t70 47.5t86 17.5t86 -17.5t70 -47.5t47.5 -70t17.5 -86v-49h-290h-104v-56q0 -36 13.5 -67.5t37 -55t55 -37t67.5 -13.5q56 0 99.5 31
t62.5 80h51zM311 489q-36 0 -67.5 -13.5t-55 -37t-37 -55t-13.5 -67.5h346q0 36 -13.5 67.5t-37 55t-55 37t-67.5 13.5z" />
    <glyph glyph-name="f" unicode="f" horiz-adv-x="483" 
d="M413 685q-36 0 -67.5 -13.5t-55 -37t-37 -55t-13.5 -67.5v-64h173v-49h-173v-399h-48v399h-102v49h102v64q0 46 17.5 86t47.5 70t70 47.5t86 17.5v-48z" />
    <glyph glyph-name="g" unicode="g" horiz-adv-x="623" 
d="M311 537q46 0 86.5 -17.5t70.5 -47.5t47.5 -70t17.5 -86v-105v-321q0 -46 -17.5 -86.5t-47.5 -70.5t-70.5 -47t-86.5 -17t-86 17.5t-70 47.5t-47.5 70t-17.5 86h48q0 -36 13.5 -67.5t37 -55t55 -37t67.5 -13.5t67.5 13.5t55 37t37 55t13.5 67.5v184q-30 -38 -75 -61
t-98 -23q-46 0 -86 17.5t-70 47.5t-47.5 70t-17.5 86v105q0 46 17.5 86t47.5 70t70 47.5t86 17.5zM484 316q0 36 -13.5 67.5t-37 55t-55 37t-67.5 13.5t-67.5 -13.5t-55 -37t-37 -55t-13.5 -67.5v-105q0 -36 13.5 -67.5t37 -55t55 -37t67.5 -13.5t67.5 13.5t55 37t37 55
t13.5 67.5v105z" />
    <glyph glyph-name="h" unicode="h" horiz-adv-x="623" 
d="M533 0h-48v316q0 36 -13.5 67.5t-37.5 55t-55.5 37t-67.5 13.5t-67.5 -13.5t-55 -37t-37 -55t-13.5 -67.5v-316h-48v306v427h48v-280q31 38 75.5 61t97.5 23q46 0 86.5 -17.5t70.5 -47.5t47.5 -70t17.5 -86v-316z" />
    <glyph glyph-name="i" unicode="i" horiz-adv-x="228" 
d="M90 0v527h48v-527h-48zM90 629v104h48v-104h-48z" />
    <glyph glyph-name="j" unicode="j" horiz-adv-x="341" 
d="M203 733h48v-104h-48v104zM251 -110q0 -46 -17.5 -86.5t-47.5 -70.5t-70 -47.5t-86 -17.5v49q36 0 67.5 13.5t55 37t37 55t13.5 67.5v637h48v-637z" />
    <glyph glyph-name="k" unicode="k" horiz-adv-x="552" 
d="M453 527h79l-346 -264l346 -263h-79l-307 233l-8 -6v-227h-48v733h48v-445z" />
    <glyph glyph-name="l" unicode="l" horiz-adv-x="228" 
d="M90 0v733h48v-733h-48z" />
    <glyph glyph-name="m" unicode="m" horiz-adv-x="810" 
d="M551 537q34 0 64 -12.5t52.5 -34.5t36.5 -51t16 -63v-376h-48v367q0 25 -9.5 47.5t-26 39t-38.5 26t-47 9.5q-26 0 -48 -9.5t-38.5 -26t-26 -39t-9.5 -47.5v-367h-48v367q0 25 -9.5 47.5t-26 39t-39 26t-47.5 9.5t-47 -9.5t-38.5 -26t-26 -39t-9.5 -47.5v-367h-48v527h48
v-41q23 23 54.5 37t66.5 14q47 0 85 -22.5t61 -60.5q23 38 61 60.5t85 22.5z" />
    <glyph glyph-name="n" unicode="n" 
d="M311 537q46 0 86 -17.5t70 -47.5t47.5 -70t17.5 -86v-316h-48v316q0 36 -13.5 67.5t-37 55t-55 37t-67.5 13.5t-67.5 -13.5t-55 -37t-37 -55t-13.5 -67.5v-316h-48v306v221h48v-73q31 38 75.5 60.5t97.5 22.5z" />
    <glyph glyph-name="o" unicode="o" 
d="M532 211q0 -46 -17.5 -86t-47.5 -70t-70 -47.5t-86 -17.5t-86 17.5t-70 47.5t-47.5 70t-17.5 86v105q0 46 17.5 86t47.5 70t70 47.5t86 17.5t86 -17.5t70 -47.5t47.5 -70t17.5 -86v-105zM484 316q0 36 -13.5 67.5t-37 55t-55 37t-67.5 13.5t-67.5 -13.5t-55 -37t-37 -55
t-13.5 -67.5v-105q0 -36 13.5 -67.5t37 -55t55 -37t67.5 -13.5t67.5 13.5t55 37t37 55t13.5 67.5v105z" />
    <glyph glyph-name="p" unicode="p" 
d="M311 537q46 0 86 -17.5t70 -47.5t47.5 -70t17.5 -86v-105q0 -46 -17.5 -86t-47.5 -70t-70 -47.5t-86 -17.5q-53 0 -98 23t-75 61v-295h-48v432v105q0 46 17 86t47 70t70.5 47.5t86.5 17.5zM484 316q0 36 -13.5 67.5t-37 55t-55 37t-67.5 13.5t-67.5 -13.5t-55 -37
t-37 -55t-13.5 -67.5v-105q0 -36 13.5 -67.5t37 -55t55 -37t67.5 -13.5t67.5 13.5t55 37t37 55t13.5 67.5v105z" />
    <glyph glyph-name="q" unicode="q" 
d="M311 537q46 0 86 -17.5t70 -47.5t47.5 -70t17.5 -86v-105v-432h-48v295q-30 -38 -75 -61t-98 -23q-46 0 -86 17.5t-70 47.5t-47.5 70t-17.5 86v105q0 46 17.5 86t47.5 70t70 47.5t86 17.5zM484 316q0 36 -13.5 67.5t-37 55t-55 37t-67.5 13.5t-67.5 -13.5t-55 -37
t-37 -55t-13.5 -67.5v-105q0 -36 13.5 -67.5t37 -55t55 -37t67.5 -13.5t67.5 13.5t55 37t37 55t13.5 67.5v105z" />
    <glyph glyph-name="r" unicode="r" horiz-adv-x="342" 
d="M312 489q-36 0 -67.5 -13.5t-55 -37t-37 -55t-13.5 -67.5v-316h-49v306v221h49v-73q30 38 75 60.5t98 22.5v-48z" />
    <glyph glyph-name="s" unicode="s" horiz-adv-x="584" 
d="M382 537q27 0 51 -10.5t42 -28.5t28.5 -42t10.5 -51h-49q0 35 -24 59.5t-59 24.5h-180q-17 0 -32.5 -6.5t-27 -18t-18 -26.5t-6.5 -33q0 -28 16 -49.5t42 -29.5l242 -77q27 -8 48.5 -26t33.5 -43q13 -26 13 -58q0 -27 -10 -51t-28 -42t-42 -28.5t-51 -10.5h-180
q-27 0 -51 10.5t-42 28.5t-28.5 42t-10.5 51h49q0 -35 24 -59.5t59 -24.5h180q35 0 59 24.5t24 59.5q0 29 -17.5 51t-44.5 30l-239 76q-55 17 -80 69q-14 26 -14 57q0 27 10.5 51t28.5 42t42 28.5t51 10.5h180z" />
    <glyph glyph-name="t" unicode="t" horiz-adv-x="481" 
d="M265 733v-206h166v-48h-166v-479h-48v479h-167v48h167v206h48z" />
    <glyph glyph-name="u" unicode="u" horiz-adv-x="623" 
d="M484 527h49v-316q0 -46 -17.5 -86t-47.5 -70t-70.5 -47.5t-86.5 -17.5t-86 17.5t-70 47.5t-47.5 70t-17.5 86v316h48v-316q0 -36 13.5 -67.5t37 -55t55 -37t67.5 -13.5t67.5 13.5t55 37t37 55t13.5 67.5v316z" />
    <glyph glyph-name="v" unicode="v" horiz-adv-x="542" 
d="M271 66l169 461h52l-194 -527h-3h-48h-4l-193 527h51z" />
    <glyph glyph-name="w" unicode="w" horiz-adv-x="727" 
d="M508 89l120 438h49l-143 -527h-2h-48h-1l-119 436l-119 -436h-2h-48h-1l-144 527h50l119 -438l120 438v0h49h1z" />
    <glyph glyph-name="x" unicode="x" horiz-adv-x="543" 
d="M433 527h60l-192 -264l192 -263h-60l-162 223l-161 -223h-60l192 263l-192 264h60l161 -223z" />
    <glyph glyph-name="y" unicode="y" 
d="M484 527h48v-316v-321q0 -46 -17.5 -86.5t-47.5 -70.5t-70 -47t-86 -17t-86 17.5t-70 47.5t-47.5 70t-17.5 86h48q0 -36 13.5 -67.5t37 -55t55 -37t67.5 -13.5t67.5 13.5t55 37t37 55t13.5 67.5v184q-31 -38 -75.5 -61t-97.5 -23q-46 0 -86 17.5t-70 47.5t-47.5 70
t-17.5 86v316h48v-316q0 -36 13.5 -67.5t37 -55t55 -37t67.5 -13.5t67.5 13.5t55 37t37 55t13.5 67.5v316z" />
    <glyph glyph-name="z" unicode="z" horiz-adv-x="583" 
d="M70 479v48h443v-48v0h-1l-378 -431h379v-48h-443v48v0v0l378 431h-378z" />
    <glyph glyph-name="braceleft" unicode="{" horiz-adv-x="449" 
d="M158 421l87 -87v-36v-169h1q0 -36 13.5 -67.5t37 -55t54.5 -37t67 -13.5h1v-48q-46 0 -86 17.5t-70 47.5t-47.5 70t-17.5 86h-1v185l-107 107l107 107v184h1q0 46 17.5 86t47.5 70t70 47.5t86 17.5v-48q-36 0 -67.5 -13.5t-55 -37t-37 -55t-13.5 -67.5h-1v-168v-36z" />
    <glyph glyph-name="bar" unicode="|" horiz-adv-x="228" 
d="M138 -41h-48v926h48v-926z" />
    <glyph glyph-name="braceright" unicode="}" horiz-adv-x="449" 
d="M291 421l-87 87v205h-1q0 36 -13.5 67.5t-37 55t-55 37t-67.5 13.5v-1v48v1q46 0 86 -17.5t70 -47.5t47.5 -70t17.5 -86h1v-185l107 -107l-107 -108v-183h-1q0 -46 -17.5 -86.5t-47.5 -70.5t-70 -47.5t-86 -17.5v48v1q36 0 67.5 13.5t55 37t37 55t13.5 67.5h1v204z" />
    <glyph glyph-name="asciitilde" unicode="~" horiz-adv-x="593" 
d="M196 351q31 0 57.5 -11.5t46.5 -31.5l28 -26q27 -29 69 -29q41 0 69.5 28.5t28.5 69.5h48q0 -30 -11.5 -57t-31.5 -46.5t-46.5 -31t-56.5 -11.5q-31 0 -57.5 11.5t-46.5 31.5l-28 26q-27 29 -69 29q-41 0 -69.5 -28.5t-28.5 -69.5h-48q0 30 11.5 57t31.5 46.5t46.5 31
t56.5 11.5z" />
    <glyph glyph-name="thothannobasethai" horiz-adv-x="562" 
d="M251 593q-36 0 -67.5 -13.5t-55 -37t-37 -55t-13.5 -67.5h-48q0 46 17.5 86t47.5 70t70 47.5t86 17.5q47 0 88 -18t71 -49q15 10 15 34v23h47v-23q0 -15 -3 -28q-7 -30 -29 -45q15 -25 23.5 -54t8.5 -61v-420h-48v267h-129v48h129v105q0 36 -13.5 67.5t-37 55t-55 37
t-67.5 13.5z" />
    <glyph glyph-name="thothannobasethai" unicode="&#xf700;" horiz-adv-x="562" 
d="M251 593q-36 0 -67.5 -13.5t-55 -37t-37 -55t-13.5 -67.5h-48q0 46 17.5 86t47.5 70t70 47.5t86 17.5q47 0 88 -18t71 -49q15 10 15 34v23h47v-23q0 -15 -3 -28q-7 -30 -29 -45q15 -25 23.5 -54t8.5 -61v-420h-48v267h-129v48h129v105q0 36 -13.5 67.5t-37 55t-55 37
t-67.5 13.5z" />
    <glyph glyph-name="thothannobasethai" unicode="&#x20ac;" horiz-adv-x="562" 
d="M251 593q-36 0 -67.5 -13.5t-55 -37t-37 -55t-13.5 -67.5h-48q0 46 17.5 86t47.5 70t70 47.5t86 17.5q47 0 88 -18t71 -49q15 10 15 34v23h47v-23q0 -15 -3 -28q-7 -30 -29 -45q15 -25 23.5 -54t8.5 -61v-420h-48v267h-129v48h129v105q0 36 -13.5 67.5t-37 55t-55 37
t-67.5 13.5z" />
    <glyph glyph-name="saraileftthai" horiz-adv-x="0" 
d="M-566 757h346v-48h-346v48z" />
    <glyph glyph-name="saraileftthai" unicode="&#xf701;" horiz-adv-x="0" 
d="M-566 757h346v-48h-346v48z" />
    <glyph glyph-name="saraiileftthai" horiz-adv-x="-1" 
d="M-239 841h48v-132h-346v48h298v84z" />
    <glyph glyph-name="saraiileftthai" unicode="&#xf702;" horiz-adv-x="-1" 
d="M-239 841h48v-132h-346v48h298v84z" />
    <glyph glyph-name="saraiileftthai" unicode="&#x201a;" horiz-adv-x="-1" 
d="M-239 841h48v-132h-346v48h298v84z" />
    <glyph glyph-name="saraueleftthai" horiz-adv-x="0" 
d="M-271 872q34 0 57.5 -23.5t23.5 -57.5t-23.5 -57.5t-57.5 -23.5h-1v-1h-264v48h191q-7 15 -7 34q0 34 23.5 57.5t57.5 23.5zM-271 748q18 0 30.5 12.5t12.5 30.5t-12.5 30.5t-30.5 12.5t-30.5 -12.5t-12.5 -30.5t12.5 -30.5t30.5 -12.5z" />
    <glyph glyph-name="saraueleftthai" unicode="&#xf703;" horiz-adv-x="0" 
d="M-271 872q34 0 57.5 -23.5t23.5 -57.5t-23.5 -57.5t-57.5 -23.5h-1v-1h-264v48h191q-7 15 -7 34q0 34 23.5 57.5t57.5 23.5zM-271 748q18 0 30.5 12.5t12.5 30.5t-12.5 30.5t-30.5 12.5t-30.5 -12.5t-12.5 -30.5t12.5 -30.5t30.5 -12.5z" />
    <glyph glyph-name="saraueleftthai" unicode="&#x192;" horiz-adv-x="0" 
d="M-271 872q34 0 57.5 -23.5t23.5 -57.5t-23.5 -57.5t-57.5 -23.5h-1v-1h-264v48h191q-7 15 -7 34q0 34 23.5 57.5t57.5 23.5zM-271 748q18 0 30.5 12.5t12.5 30.5t-12.5 30.5t-30.5 12.5t-30.5 -12.5t-12.5 -30.5t12.5 -30.5t30.5 -12.5z" />
    <glyph glyph-name="saraueeleftthai" horiz-adv-x="-1" 
d="M-239 841h48v-132h-346v48h202v84h48v-84h48v84z" />
    <glyph glyph-name="saraueeleftthai" unicode="&#xf704;" horiz-adv-x="-1" 
d="M-239 841h48v-132h-346v48h202v84h48v-84h48v84z" />
    <glyph glyph-name="saraueeleftthai" unicode="&#x201e;" horiz-adv-x="-1" 
d="M-239 841h48v-132h-346v48h202v84h48v-84h48v84z" />
    <glyph glyph-name="ellipsis" unicode="&#x85;" horiz-adv-x="540" 
d="M162 36q0 -15 -10.5 -25.5t-25.5 -10.5t-25.5 10.5t-10.5 25.5t10.5 25.5t25.5 10.5t25.5 -10.5t10.5 -25.5zM306 36q0 -15 -10.5 -25.5t-25.5 -10.5t-25.5 10.5t-10.5 25.5t10.5 25.5t25.5 10.5t25.5 -10.5t10.5 -25.5zM450 36q0 -15 -10.5 -25.5t-25.5 -10.5
t-25.5 10.5t-10.5 25.5t10.5 25.5t25.5 10.5t25.5 -10.5t10.5 -25.5z" />
    <glyph glyph-name="ellipsis" unicode="&#x2026;" horiz-adv-x="540" 
d="M162 36q0 -15 -10.5 -25.5t-25.5 -10.5t-25.5 10.5t-10.5 25.5t10.5 25.5t25.5 10.5t25.5 -10.5t10.5 -25.5zM306 36q0 -15 -10.5 -25.5t-25.5 -10.5t-25.5 10.5t-10.5 25.5t10.5 25.5t25.5 10.5t25.5 -10.5t10.5 -25.5zM450 36q0 -15 -10.5 -25.5t-25.5 -10.5
t-25.5 10.5t-10.5 25.5t10.5 25.5t25.5 10.5t25.5 -10.5t10.5 -25.5z" />
    <glyph glyph-name="maieklowleftthai" horiz-adv-x="-1" 
d="M-234 855h43v-146h-43v146z" />
    <glyph glyph-name="maieklowleftthai" unicode="&#xf705;" horiz-adv-x="-1" 
d="M-234 855h43v-146h-43v146z" />
    <glyph glyph-name="maieklowleftthai" unicode="&#x2020;" horiz-adv-x="-1" 
d="M-234 855h43v-146h-43v146z" />
    <glyph glyph-name="maitholowleftthai" horiz-adv-x="-1" 
d="M-269 752h198v-43h-241v73h-44v43h87v-73z" />
    <glyph glyph-name="maitholowleftthai" unicode="&#xf706;" horiz-adv-x="-1" 
d="M-269 752h198v-43h-241v73h-44v43h87v-73z" />
    <glyph glyph-name="maitholowleftthai" unicode="&#x2021;" horiz-adv-x="-1" 
d="M-269 752h198v-43h-241v73h-44v43h87v-73z" />
    <glyph glyph-name="maitrilowleftthai" horiz-adv-x="-1" 
d="M-151 752v-43h-103v51q0 22 -15 40l-68 -68l-69 68q-15 -18 -15 -40v-51h-44v51q0 31 16 55.5t48 40.5l64 -62l63 62q33 -17 48.5 -41.5t15.5 -54.5v-8h59z" />
    <glyph glyph-name="maitrilowleftthai" unicode="&#xf707;" horiz-adv-x="-1" 
d="M-151 752v-43h-103v51q0 22 -15 40l-68 -68l-69 68q-15 -18 -15 -40v-51h-44v51q0 31 16 55.5t48 40.5l64 -62l63 62q33 -17 48.5 -41.5t15.5 -54.5v-8h59z" />
    <glyph glyph-name="maitrilowleftthai" unicode="&#x2c6;" horiz-adv-x="-1" 
d="M-151 752v-43h-103v51q0 22 -15 40l-68 -68l-69 68q-15 -18 -15 -40v-51h-44v51q0 31 16 55.5t48 40.5l64 -62l63 62q33 -17 48.5 -41.5t15.5 -54.5v-8h59z" />
    <glyph glyph-name="maichattawalowleftthai" horiz-adv-x="-1" 
d="M-141 760h-52v-51h-43v51h-51v44h51v51h43v-51h52v-44z" />
    <glyph glyph-name="maichattawalowleftthai" unicode="&#xf708;" horiz-adv-x="-1" 
d="M-141 760h-52v-51h-43v51h-51v44h51v51h43v-51h52v-44z" />
    <glyph glyph-name="maichattawalowleftthai" unicode="&#x2030;" horiz-adv-x="-1" 
d="M-141 760h-52v-51h-43v51h-51v44h51v51h43v-51h52v-44z" />
    <glyph glyph-name="thanthakhatlowleftthai" horiz-adv-x="-1" 
d="M-171 840v-48h-130h-10q-16 -2 -27 -13t-11 -28v-42h-48v42q0 30 17.5 53t44.5 32q6 2 7 2q8 2 13 2h2h5h7h130z" />
    <glyph glyph-name="thanthakhatlowleftthai" unicode="&#xf709;" horiz-adv-x="-1" 
d="M-171 840v-48h-130h-10q-16 -2 -27 -13t-11 -28v-42h-48v42q0 30 17.5 53t44.5 32q6 2 7 2q8 2 13 2h2h5h7h130z" />
    <glyph glyph-name="thanthakhatlowleftthai" unicode="&#x160;" horiz-adv-x="-1" 
d="M-171 840v-48h-130h-10q-16 -2 -27 -13t-11 -28v-42h-48v42q0 30 17.5 53t44.5 32q6 2 7 2q8 2 13 2h2h5h7h130z" />
    <glyph glyph-name="maieklowrightthai" horiz-adv-x="0" 
d="M-132 855h43v-146h-43v146z" />
    <glyph glyph-name="maieklowrightthai" unicode="&#xf70a;" horiz-adv-x="0" 
d="M-132 855h43v-146h-43v146z" />
    <glyph glyph-name="maieklowrightthai" unicode="&#x2039;" horiz-adv-x="0" 
d="M-132 855h43v-146h-43v146z" />
    <glyph glyph-name="maitholowrightthai" horiz-adv-x="1" 
d="M-198 752h198v-43h-241v73h-44v43h87v-73z" />
    <glyph glyph-name="maitholowrightthai" unicode="&#xf70b;" horiz-adv-x="1" 
d="M-198 752h198v-43h-241v73h-44v43h87v-73z" />
    <glyph glyph-name="maitholowrightthai" unicode="&#x152;" horiz-adv-x="1" 
d="M-198 752h198v-43h-241v73h-44v43h87v-73z" />
    <glyph glyph-name="maitrilowrightthai" horiz-adv-x="0" 
d="M-20 757v-48h-47h-47h-1v24q0 25 -16 44l-50 -50l-9 11l-39 39q-17 -19 -17 -44v-24h-48v24q0 26 10.5 48.5t30.5 39.5q5 4 10.5 7.5l10.5 6.5l8 4l44 -43l43 43l8 -4q10 -5 21 -14q30 -25 39 -64h49z" />
    <glyph glyph-name="maitrilowrightthai" unicode="&#xf70c;" horiz-adv-x="0" 
d="M-20 757v-48h-47h-47h-1v24q0 25 -16 44l-50 -50l-9 11l-39 39q-17 -19 -17 -44v-24h-48v24q0 26 10.5 48.5t30.5 39.5q5 4 10.5 7.5l10.5 6.5l8 4l44 -43l43 43l8 -4q10 -5 21 -14q30 -25 39 -64h49z" />
    <glyph glyph-name="maichattawalowrightthai" horiz-adv-x="-1" 
d="M-41 760h-52v-51h-43v51h-51v44h51v51h43v-51h52v-44z" />
    <glyph glyph-name="maichattawalowrightthai" unicode="&#xf70d;" horiz-adv-x="-1" 
d="M-41 760h-52v-51h-43v51h-51v44h51v51h43v-51h52v-44z" />
    <glyph glyph-name="maichattawalowrightthai" unicode="&#x17d;" horiz-adv-x="-1" 
d="M-41 760h-52v-51h-43v51h-51v44h51v51h43v-51h52v-44z" />
    <glyph glyph-name="thanthakhatlowrightthai" horiz-adv-x="0" 
d="M-40 840v-48h-130h-10q-16 -2 -27 -13t-11 -28v-42h-48v42q0 30 17.5 53t44.5 32q6 2 7 2q8 2 13 2h2h5h7h130z" />
    <glyph glyph-name="thanthakhatlowrightthai" unicode="&#xf70e;" horiz-adv-x="0" 
d="M-40 840v-48h-130h-10q-16 -2 -27 -13t-11 -28v-42h-48v42q0 30 17.5 53t44.5 32q6 2 7 2q8 2 13 2h2h5h7h130z" />
    <glyph glyph-name="yoyingnobasethai" horiz-adv-x="949" 
d="M859 630v-456q0 -38 -14.5 -71.5t-39.5 -58.5t-58.5 -39.5t-71.5 -14.5t-71.5 14.5t-58.5 39.5t-39.5 58.5t-14.5 71.5l-1 246q0 36 -13.5 67.5t-37 55t-55 37t-67.5 13.5q-44 0 -73.5 -15t-50 -37.5t-33 -47.5l-22.5 -45l6 -40v-314q0 -25 9 -46h124v-48h-150
q-10 10 -20.5 36t-10.5 58v326l-6 40q10 19 25 50t40.5 60t64.5 50t97 21q46 0 86 -17.5t70 -47.5t47.5 -70t17.5 -86v-246q0 -29 10.5 -53.5t29.5 -43.5t43.5 -29.5t53.5 -10.5q28 0 53 10.5t43.5 29.5t29.5 43.5t11 53.5v456h47z" />
    <glyph glyph-name="yoyingnobasethai" unicode="&#xf70f;" horiz-adv-x="949" 
d="M859 630v-456q0 -38 -14.5 -71.5t-39.5 -58.5t-58.5 -39.5t-71.5 -14.5t-71.5 14.5t-58.5 39.5t-39.5 58.5t-14.5 71.5l-1 246q0 36 -13.5 67.5t-37 55t-55 37t-67.5 13.5q-44 0 -73.5 -15t-50 -37.5t-33 -47.5l-22.5 -45l6 -40v-314q0 -25 9 -46h124v-48h-150
q-10 10 -20.5 36t-10.5 58v326l-6 40q10 19 25 50t40.5 60t64.5 50t97 21q46 0 86 -17.5t70 -47.5t47.5 -70t17.5 -86v-246q0 -29 10.5 -53.5t29.5 -43.5t43.5 -29.5t53.5 -10.5q28 0 53 10.5t43.5 29.5t29.5 43.5t11 53.5v456h47z" />
    <glyph glyph-name="quoteleft" horiz-adv-x="252" 
d="M90 548q1 8 2.5 15.5t4.5 14.5q4 11 11 19t15 16q9 7 18 11q1 0 11 4q4 2 10 3v-50q-12 -6 -21 -21q21 -10 21 -32q0 -15 -10.5 -25.5t-25.5 -10.5q-9 0 -15 3q-11 5 -15 13.5t-6 19.5v20z" />
    <glyph glyph-name="quoteleft" unicode="&#x2018;" horiz-adv-x="252" 
d="M90 548q1 8 2.5 15.5t4.5 14.5q4 11 11 19t15 16q9 7 18 11q1 0 11 4q4 2 10 3v-50q-12 -6 -21 -21q21 -10 21 -32q0 -15 -10.5 -25.5t-25.5 -10.5q-9 0 -15 3q-11 5 -15 13.5t-6 19.5v20z" />
    <glyph glyph-name="quoteright" horiz-adv-x="252" 
d="M162 574q-1 -7 -2.5 -14.5t-3.5 -14.5q-7 -20 -27 -35q-8 -8 -18 -12q-1 -1 -11 -3q-4 -1 -10 -3v50q15 7 21 20q-21 10 -21 33q0 15 10.5 25.5t25.5 10.5q7 0 15 -4q11 -5 15.5 -13t5.5 -19v-21z" />
    <glyph glyph-name="quoteright" unicode="&#x2019;" horiz-adv-x="252" 
d="M162 574q-1 -7 -2.5 -14.5t-3.5 -14.5q-7 -20 -27 -35q-8 -8 -18 -12q-1 -1 -11 -3q-4 -1 -10 -3v50q15 7 21 20q-21 10 -21 33q0 15 10.5 25.5t25.5 10.5q7 0 15 -4q11 -5 15.5 -13t5.5 -19v-21z" />
    <glyph glyph-name="bullet" horiz-adv-x="410" 
d="M205 65q-25 0 -48 10t-40 27t-27 39.5t-10 48.5q0 25 10 48t27.5 40t40 27t47.5 10t48 -10t40 -27t27 -40t10 -48t-10 -47.5t-27 -40t-40 -27.5t-48 -10z" />
    <glyph glyph-name="bullet" unicode="&#x2022;" horiz-adv-x="410" 
d="M205 65q-25 0 -48 10t-40 27t-27 39.5t-10 48.5q0 25 10 48t27.5 40t40 27t47.5 10t48 -10t40 -27t27 -40t10 -48t-10 -47.5t-27 -40t-40 -27.5t-48 -10z" />
    <glyph glyph-name="endash" horiz-adv-x="521" 
d="M431 233h-341v49h341v-49z" />
    <glyph glyph-name="endash" unicode="&#x2013;" horiz-adv-x="521" 
d="M431 233h-341v49h341v-49z" />
    <glyph glyph-name="emdash" horiz-adv-x="501" 
d="M471 233h-441v49h441v-49z" />
    <glyph glyph-name="emdash" unicode="&#x2014;" horiz-adv-x="501" 
d="M471 233h-441v49h441v-49z" />
    <glyph glyph-name="maihanakatleftthai" horiz-adv-x="0" 
d="M-281 710q-12 0 -26 6t-26.5 17t-21 28t-8.5 38v42h48v-42q0 -17 11 -28t27 -13h207v-48h-211z" />
    <glyph glyph-name="maihanakatleftthai" unicode="&#xf710;" horiz-adv-x="0" 
d="M-281 710q-12 0 -26 6t-26.5 17t-21 28t-8.5 38v42h48v-42q0 -17 11 -28t27 -13h207v-48h-211z" />
    <glyph glyph-name="maihanakatleftthai" unicode="&#x2dc;" horiz-adv-x="0" 
d="M-281 710q-12 0 -26 6t-26.5 17t-21 28t-8.5 38v42h48v-42q0 -17 11 -28t27 -13h207v-48h-211z" />
    <glyph glyph-name="nikhahitleftthai" horiz-adv-x="0" 
d="M-182 853q30 0 51 -21t21 -51t-21 -51t-51 -21t-51 21t-21 51t21 51t51 21zM-182 758q11 0 17.5 7t6.5 17t-6.5 17t-17.5 7q-10 0 -17 -7t-7 -17t7 -17t17 -7z" />
    <glyph glyph-name="nikhahitleftthai" unicode="&#xf711;" horiz-adv-x="0" 
d="M-182 853q30 0 51 -21t21 -51t-21 -51t-51 -21t-51 21t-21 51t21 51t51 21zM-182 758q11 0 17.5 7t6.5 17t-6.5 17t-17.5 7q-10 0 -17 -7t-7 -17t7 -17t17 -7z" />
    <glyph glyph-name="nikhahitleftthai" unicode="&#x2122;" horiz-adv-x="0" 
d="M-182 853q30 0 51 -21t21 -51t-21 -51t-51 -21t-51 21t-21 51t21 51t51 21zM-182 758q11 0 17.5 7t6.5 17t-6.5 17t-17.5 7q-10 0 -17 -7t-7 -17t7 -17t17 -7z" />
    <glyph glyph-name="maitaikhuleftthai" horiz-adv-x="0" 
d="M-330 878q-31 0 -50.5 -11.5t-19.5 -41.5v-21q0 -21 16 -39l67 67l68 -67q16 18 16 39v28h43v-28q0 -30 -15.5 -54t-47.5 -41l-64 62l-63 -62q-33 17 -48 41.5t-15 53.5v20q0 45 23 66.5t60 27t81.5 -1t88.5 -17.5v-46v1q-3 1 -19.5 5t-38 8t-44 7.5t-38.5 3.5z" />
    <glyph glyph-name="maitaikhuleftthai" unicode="&#xf712;" horiz-adv-x="0" 
d="M-330 878q-31 0 -50.5 -11.5t-19.5 -41.5v-21q0 -21 16 -39l67 67l68 -67q16 18 16 39v28h43v-28q0 -30 -15.5 -54t-47.5 -41l-64 62l-63 -62q-33 17 -48 41.5t-15 53.5v20q0 45 23 66.5t60 27t81.5 -1t88.5 -17.5v-46v1q-3 1 -19.5 5t-38 8t-44 7.5t-38.5 3.5z" />
    <glyph glyph-name="maitaikhuleftthai" unicode="&#x161;" horiz-adv-x="0" 
d="M-330 878q-31 0 -50.5 -11.5t-19.5 -41.5v-21q0 -21 16 -39l67 67l68 -67q16 18 16 39v28h43v-28q0 -30 -15.5 -54t-47.5 -41l-64 62l-63 -62q-33 17 -48 41.5t-15 53.5v20q0 45 23 66.5t60 27t81.5 -1t88.5 -17.5v-46v1q-3 1 -19.5 5t-38 8t-44 7.5t-38.5 3.5z" />
    <glyph glyph-name="maiekupperleftthai" horiz-adv-x="0" 
d="M-233 899v146h43v-146h-43v0z" />
    <glyph glyph-name="maiekupperleftthai" unicode="&#xf713;" horiz-adv-x="0" 
d="M-233 899v146h43v-146h-43v0z" />
    <glyph glyph-name="maiekupperleftthai" unicode="&#x203a;" horiz-adv-x="0" 
d="M-233 899v146h43v-146h-43v0z" />
    <glyph glyph-name="maithoupperleftthai" horiz-adv-x="0" 
d="M-208 942h198v-43h-241v73h-44v43h87v-73z" />
    <glyph glyph-name="maithoupperleftthai" unicode="&#xf714;" horiz-adv-x="0" 
d="M-208 942h198v-43h-241v73h-44v43h87v-73z" />
    <glyph glyph-name="maithoupperleftthai" unicode="&#x153;" horiz-adv-x="0" 
d="M-208 942h198v-43h-241v73h-44v43h87v-73z" />
    <glyph glyph-name="maitriupperleftthai" horiz-adv-x="0" 
d="M-180 936v-48h-47h-47h-1v24q0 25 -16 44l-50 -50l-9 11l-39 39q-17 -19 -17 -44v-24h-48v24q0 26 10.5 48.5t30.5 39.5q5 4 10.5 7.5l10.5 6.5l8 4l44 -43l43 43l8 -4q10 -5 21 -14q30 -25 39 -64h49z" />
    <glyph glyph-name="maitriupperleftthai" unicode="&#xf715;" horiz-adv-x="0" 
d="M-180 936v-48h-47h-47h-1v24q0 25 -16 44l-50 -50l-9 11l-39 39q-17 -19 -17 -44v-24h-48v24q0 26 10.5 48.5t30.5 39.5q5 4 10.5 7.5l10.5 6.5l8 4l44 -43l43 43l8 -4q10 -5 21 -14q30 -25 39 -64h49z" />
    <glyph glyph-name="maichattawaupperleftthai" horiz-adv-x="0" 
d="M-140 994v-44h-52v-51h-43v51h-51v44h51v51h43v-51h52v0z" />
    <glyph glyph-name="maichattawaupperleftthai" unicode="&#xf716;" horiz-adv-x="0" 
d="M-140 994v-44h-52v-51h-43v51h-51v44h51v51h43v-51h52v0z" />
    <glyph glyph-name="maichattawaupperleftthai" unicode="&#x17e;" horiz-adv-x="0" 
d="M-140 994v-44h-52v-51h-43v51h-51v44h51v51h43v-51h52v0z" />
    <glyph glyph-name="thanthakhatupperleftthai" horiz-adv-x="0" 
d="M-110 1019v-48h-130h-10q-16 -2 -27 -13t-11 -28v-42h-48v42q0 30 17.5 53t44.5 32q6 2 7 2q8 2 13 2h2h5h7h130z" />
    <glyph glyph-name="thanthakhatupperleftthai" unicode="&#xf717;" horiz-adv-x="0" 
d="M-110 1019v-48h-130h-10q-16 -2 -27 -13t-11 -28v-42h-48v42q0 30 17.5 53t44.5 32q6 2 7 2q8 2 13 2h2h5h7h130z" />
    <glyph glyph-name="thanthakhatupperleftthai" unicode="&#x178;" horiz-adv-x="0" 
d="M-110 1019v-48h-130h-10q-16 -2 -27 -13t-11 -28v-42h-48v42q0 30 17.5 53t44.5 32q6 2 7 2q8 2 13 2h2h5h7h130z" />
    <glyph glyph-name="uni00A0" unicode="&#xa0;" horiz-adv-x="452" 
 />
    <glyph glyph-name="uni00A0" unicode="&#xe00;" horiz-adv-x="452" 
 />
    <glyph glyph-name="kokaithai" unicode="&#xa1;" horiz-adv-x="628" 
d="M90 460q10 19 25 50t40.5 60t64.5 50t97 21q46 0 86 -17.5t70 -47.5t47.5 -70t17.5 -86v-420h-48v420q0 36 -13.5 67.5t-37 55t-55 37t-67.5 13.5q-44 0 -73.5 -15t-49.5 -37.5t-33 -47.5l-23 -45l6 -40v-408h-48v420z" />
    <glyph glyph-name="kokaithai" unicode="&#xe01;" horiz-adv-x="628" 
d="M90 460q10 19 25 50t40.5 60t64.5 50t97 21q46 0 86 -17.5t70 -47.5t47.5 -70t17.5 -86v-420h-48v420q0 36 -13.5 67.5t-37 55t-55 37t-67.5 13.5q-44 0 -73.5 -15t-49.5 -37.5t-33 -47.5l-23 -45l6 -40v-408h-48v420z" />
    <glyph glyph-name="khokhaithai" unicode="&#xa2;" horiz-adv-x="476" 
d="M163 518q0 13 -5 31t-14 34h-114v47h135q22 -23 34 -51.5t12 -60.5v-39q-4 -30 -15.5 -48t-23.5 -32.5t-21.5 -30.5t-9.5 -42v-190q0 -20 7.5 -38t21 -31.5t31.5 -21.5t39 -8t39 8t31.5 21.5t21 31.5t7.5 38v494h47v-494q0 -30 -11.5 -56.5t-31 -46.5t-46 -31.5
t-57.5 -11.5q-30 0 -57 11.5t-46.5 31.5t-31 46.5t-11.5 56.5v190q0 34 9 53.5t20.5 33.5l23 28.5t16.5 37.5v39z" />
    <glyph glyph-name="khokhaithai" unicode="&#xe02;" horiz-adv-x="476" 
d="M163 518q0 13 -5 31t-14 34h-114v47h135q22 -23 34 -51.5t12 -60.5v-39q-4 -30 -15.5 -48t-23.5 -32.5t-21.5 -30.5t-9.5 -42v-190q0 -20 7.5 -38t21 -31.5t31.5 -21.5t39 -8t39 8t31.5 21.5t21 31.5t7.5 38v494h47v-494q0 -30 -11.5 -56.5t-31 -46.5t-46 -31.5
t-57.5 -11.5q-30 0 -57 11.5t-46.5 31.5t-31 46.5t-11.5 56.5v190q0 34 9 53.5t20.5 33.5l23 28.5t16.5 37.5v39z" />
    <glyph glyph-name="khokhuatthai" unicode="&#xa3;" horiz-adv-x="476" 
d="M386 630v-495q0 -30 -11.5 -56.5t-31 -46.5t-46.5 -31.5t-57 -11.5q-31 0 -58 11.5t-46.5 31.5t-31 46.5t-11.5 56.5v181q0 44 11 67t24.5 38.5t25 31.5t11.5 46v36q0 9 -0.5 16.5t-3.5 15.5l-65 -65q-20 20 -37 35l-29 26v67l66 -61l60 61h25q1 -1 6 -8t10.5 -19.5
t10 -29.5t4.5 -37v-37q0 -37 -11 -57t-24.5 -36.5t-24.5 -35.5t-11 -54v-181q0 -20 7.5 -38t21 -31.5t31.5 -21.5t39 -8t39 8t31.5 21.5t21 31.5t7.5 38v495h47z" />
    <glyph glyph-name="khokhuatthai" unicode="&#xe03;" horiz-adv-x="476" 
d="M386 630v-495q0 -30 -11.5 -56.5t-31 -46.5t-46.5 -31.5t-57 -11.5q-31 0 -58 11.5t-46.5 31.5t-31 46.5t-11.5 56.5v181q0 44 11 67t24.5 38.5t25 31.5t11.5 46v36q0 9 -0.5 16.5t-3.5 15.5l-65 -65q-20 20 -37 35l-29 26v67l66 -61l60 61h25q1 -1 6 -8t10.5 -19.5
t10 -29.5t4.5 -37v-37q0 -37 -11 -57t-24.5 -36.5t-24.5 -35.5t-11 -54v-181q0 -20 7.5 -38t21 -31.5t31.5 -21.5t39 -8t39 8t31.5 21.5t21 31.5t7.5 38v495h47z" />
    <glyph glyph-name="khokhwaithai" unicode="&#xa4;" 
d="M90 420q0 46 17.5 86t47.5 70t70 47.5t86 17.5t86 -17.5t70 -47.5t47.5 -70t17.5 -86v-420h-48v420q0 36 -13.5 67.5t-37 55t-55 37t-67.5 13.5t-67.5 -13.5t-55 -37t-37 -55t-13.5 -67.5v-105h173v-48h-173v-267h-48v420z" />
    <glyph glyph-name="khokhwaithai" unicode="&#xe04;" 
d="M90 420q0 46 17.5 86t47.5 70t70 47.5t86 17.5t86 -17.5t70 -47.5t47.5 -70t17.5 -86v-420h-48v420q0 36 -13.5 67.5t-37 55t-55 37t-67.5 13.5t-67.5 -13.5t-55 -37t-37 -55t-13.5 -67.5v-105h173v-48h-173v-267h-48v420z" />
    <glyph glyph-name="khokhonthai" unicode="&#xa5;" 
d="M90 444q0 57 29 109.5t92 87.5l100 -101l100 101q63 -35 92 -87t29 -110v-444h-48v444q0 42 -18 77t-48 59l-107 -108l-107 108q-30 -24 -48 -59t-18 -77v-129h172v-48h-172v-267h-48v444z" />
    <glyph glyph-name="khokhonthai" unicode="&#xe05;" 
d="M90 444q0 57 29 109.5t92 87.5l100 -101l100 101q63 -35 92 -87t29 -110v-444h-48v444q0 42 -18 77t-48 59l-107 -108l-107 108q-30 -24 -48 -59t-18 -77v-129h172v-48h-172v-267h-48v444z" />
    <glyph glyph-name="khorakhangthai" unicode="&#xa6;" horiz-adv-x="625" 
d="M535 630v-419q0 -46 -17.5 -86t-47.5 -70t-70 -47.5t-86 -17.5q-54 0 -98 23t-75 61v-74h-48v316q0 44 11 67t24.5 38.5t25 31.5t11.5 46v36q0 9 -0.5 16.5t-3.5 15.5l-65 -65l-37 35.5l-29 26.5v66l66 -61l60 61h25q1 -1 6 -8t10.5 -19.5t10 -29.5t4.5 -37v-37
q0 -37 -11 -57t-24.5 -36.5t-24.5 -35.5t-11 -54v-105q0 -36 13.5 -67.5t37 -55t55 -37t67.5 -13.5t67.5 13.5t55 37t37 55t13.5 67.5v419h48z" />
    <glyph glyph-name="khorakhangthai" unicode="&#xe06;" horiz-adv-x="625" 
d="M535 630v-419q0 -46 -17.5 -86t-47.5 -70t-70 -47.5t-86 -17.5q-54 0 -98 23t-75 61v-74h-48v316q0 44 11 67t24.5 38.5t25 31.5t11.5 46v36q0 9 -0.5 16.5t-3.5 15.5l-65 -65l-37 35.5l-29 26.5v66l66 -61l60 61h25q1 -1 6 -8t10.5 -19.5t10 -29.5t4.5 -37v-37
q0 -37 -11 -57t-24.5 -36.5t-24.5 -35.5t-11 -54v-105q0 -36 13.5 -67.5t37 -55t55 -37t67.5 -13.5t67.5 13.5t55 37t37 55t13.5 67.5v419h48z" />
    <glyph glyph-name="ngonguthai" unicode="&#xa7;" horiz-adv-x="543" 
d="M453 193q0 -46 -14.5 -83.5t-41 -64t-63.5 -41t-83 -14.5t-86 17.5t-70 47.5t-47.5 70t-17.5 86h48q0 -36 13.5 -67.5t37 -55t55 -37t67.5 -13.5t64.5 12.5t48.5 33.5t30.5 49t10.5 60v390h-105v47h153v-437z" />
    <glyph glyph-name="ngonguthai" unicode="&#xe07;" horiz-adv-x="543" 
d="M453 193q0 -46 -14.5 -83.5t-41 -64t-63.5 -41t-83 -14.5t-86 17.5t-70 47.5t-47.5 70t-17.5 86h48q0 -36 13.5 -67.5t37 -55t55 -37t67.5 -13.5t64.5 12.5t48.5 33.5t30.5 49t10.5 60v390h-105v47h153v-437z" />
    <glyph glyph-name="chochanthai" unicode="&#xa8;" horiz-adv-x="562" 
d="M251 641q46 0 86 -17.5t70 -47.5t47.5 -70t17.5 -86v-420h-48v267h-129v48h129v105q0 36 -13.5 67.5t-37 55t-55 37t-67.5 13.5t-67.5 -13.5t-55 -37t-37 -55t-13.5 -67.5h-48q0 46 17.5 86t47.5 70t70 47.5t86 17.5z" />
    <glyph glyph-name="chochanthai" unicode="&#xe08;" horiz-adv-x="562" 
d="M251 641q46 0 86 -17.5t70 -47.5t47.5 -70t17.5 -86v-420h-48v267h-129v48h129v105q0 36 -13.5 67.5t-37 55t-55 37t-67.5 13.5t-67.5 -13.5t-55 -37t-37 -55t-13.5 -67.5h-48q0 46 17.5 86t47.5 70t70 47.5t86 17.5z" />
    <glyph glyph-name="chochingthai" unicode="&#xa9;" horiz-adv-x="619" 
d="M308 641q46 0 86 -17.5t70 -47.5t47.5 -70t17.5 -86v-420h-48v74q-30 -38 -75 -61t-98 -23q-46 0 -86 17.5t-70 47.5t-47.5 70t-17.5 86v46h-17v48h65v-94q0 -36 13.5 -67.5t37 -55t55 -37t67.5 -13.5t67.5 13.5t55 37t37 55t13.5 67.5v209q0 36 -13.5 67.5t-37 55
t-55 37t-67.5 13.5t-67.5 -13.5t-55 -37t-37 -55t-13.5 -67.5h-48q0 46 17.5 86t47.5 70t70 47.5t86 17.5z" />
    <glyph glyph-name="chochingthai" unicode="&#xe09;" horiz-adv-x="619" 
d="M308 641q46 0 86 -17.5t70 -47.5t47.5 -70t17.5 -86v-420h-48v74q-30 -38 -75 -61t-98 -23q-46 0 -86 17.5t-70 47.5t-47.5 70t-17.5 86v46h-17v48h65v-94q0 -36 13.5 -67.5t37 -55t55 -37t67.5 -13.5t67.5 13.5t55 37t37 55t13.5 67.5v209q0 36 -13.5 67.5t-37 55
t-55 37t-67.5 13.5t-67.5 -13.5t-55 -37t-37 -55t-13.5 -67.5h-48q0 46 17.5 86t47.5 70t70 47.5t86 17.5z" />
    <glyph glyph-name="chochangthai" unicode="&#xaa;" horiz-adv-x="476" 
d="M144 583h-114v47h135q22 -23 34 -51.5t12 -60.5v-39q-4 -31 -15.5 -49t-23.5 -32t-21.5 -29.5t-9.5 -42.5v-190q0 -20 7.5 -38t21 -31.5t31.5 -21.5t39 -8t39 8t31.5 21.5t21 31.5t7.5 38v274q0 31 -22 53t-54 22v48q32 0 54 21.5t22 52.5v34h47v-34q0 -24 -7.5 -42
t-16.5 -30.5t-17 -19t-9 -6.5l8 -6.5t17.5 -18.5t17 -30.5t7.5 -43.5v-274q0 -30 -11.5 -56.5t-31 -46.5t-46 -31.5t-57.5 -11.5q-30 0 -57 11.5t-46.5 31.5t-31 46.5t-11.5 56.5v190q0 34 9 53.5t21 34l23 28.5t16 37v39q0 13 -5 31t-14 34z" />
    <glyph glyph-name="chochangthai" unicode="&#xe0a;" horiz-adv-x="476" 
d="M144 583h-114v47h135q22 -23 34 -51.5t12 -60.5v-39q-4 -31 -15.5 -49t-23.5 -32t-21.5 -29.5t-9.5 -42.5v-190q0 -20 7.5 -38t21 -31.5t31.5 -21.5t39 -8t39 8t31.5 21.5t21 31.5t7.5 38v274q0 31 -22 53t-54 22v48q32 0 54 21.5t22 52.5v34h47v-34q0 -24 -7.5 -42
t-16.5 -30.5t-17 -19t-9 -6.5l8 -6.5t17.5 -18.5t17 -30.5t7.5 -43.5v-274q0 -30 -11.5 -56.5t-31 -46.5t-46 -31.5t-57.5 -11.5q-30 0 -57 11.5t-46.5 31.5t-31 46.5t-11.5 56.5v190q0 34 9 53.5t21 34l23 28.5t16 37v39q0 13 -5 31t-14 34z" />
    <glyph glyph-name="sosothai" unicode="&#xab;" horiz-adv-x="476" 
d="M386 608q0 -23 -7.5 -41.5t-16.5 -31t-17 -19t-9 -6.5q3 -2 11 -9t16.5 -19.5t15.5 -30t7 -40.5v-275q0 -30 -11.5 -56.5t-31 -46.5t-46.5 -31.5t-57 -11.5q-31 0 -58 11.5t-46.5 31.5t-31 46.5t-11.5 56.5v181q0 44 11 67t24.5 38.5t25 31.5t11.5 46v36q0 9 -0.5 16.5
t-3.5 15.5l-65 -65q-20 20 -37.5 35.5t-28.5 26.5v65l66 -60l60 60h25q1 -1 6 -8t10.5 -19t10 -29t4.5 -37v-37q0 -37 -11 -57t-24.5 -36.5t-24.5 -35.5t-11 -54v-181q0 -20 7.5 -38t21 -31.5t31.5 -21.5t39 -8t39 8t31.5 21.5t21 31.5t7.5 38v275q0 31 -22 53t-54 22v48
q32 0 54 21.5t22 52.5v33h47v-33v0z" />
    <glyph glyph-name="sosothai" unicode="&#xe0b;" horiz-adv-x="476" 
d="M386 608q0 -23 -7.5 -41.5t-16.5 -31t-17 -19t-9 -6.5q3 -2 11 -9t16.5 -19.5t15.5 -30t7 -40.5v-275q0 -30 -11.5 -56.5t-31 -46.5t-46.5 -31.5t-57 -11.5q-31 0 -58 11.5t-46.5 31.5t-31 46.5t-11.5 56.5v181q0 44 11 67t24.5 38.5t25 31.5t11.5 46v36q0 9 -0.5 16.5
t-3.5 15.5l-65 -65q-20 20 -37.5 35.5t-28.5 26.5v65l66 -60l60 60h25q1 -1 6 -8t10.5 -19t10 -29t4.5 -37v-37q0 -37 -11 -57t-24.5 -36.5t-24.5 -35.5t-11 -54v-181q0 -20 7.5 -38t21 -31.5t31.5 -21.5t39 -8t39 8t31.5 21.5t21 31.5t7.5 38v275q0 31 -22 53t-54 22v48
q32 0 54 21.5t22 52.5v33h47v-33v0z" />
    <glyph glyph-name="chochoethai" unicode="&#xac;" horiz-adv-x="950" 
d="M860 631v-457q0 -38 -14.5 -71.5t-40 -58.5t-59 -39.5t-71.5 -14.5q-42 0 -76.5 16t-60.5 45v-51h-48v420q0 36 -13.5 67.5t-37 55t-55 37t-67.5 13.5q-44 0 -73.5 -15t-50 -37.5t-33 -47.5l-22.5 -45l6 -40v-314q0 -25 9 -46h124v-48h-150q-10 10 -20.5 36t-10.5 58v326
l-6 40q10 19 25 50t40.5 60t64.5 50t97 21q46 0 86 -17.5t70 -47.5t47.5 -70t17.5 -86v-250q1 -28 12 -52t29.5 -42t43 -28.5t52.5 -10.5t53 10.5t44 29.5t29.5 43.5t10.5 53.5v457h48z" />
    <glyph glyph-name="chochoethai" unicode="&#xe0c;" horiz-adv-x="950" 
d="M860 631v-457q0 -38 -14.5 -71.5t-40 -58.5t-59 -39.5t-71.5 -14.5q-42 0 -76.5 16t-60.5 45v-51h-48v420q0 36 -13.5 67.5t-37 55t-55 37t-67.5 13.5q-44 0 -73.5 -15t-50 -37.5t-33 -47.5l-22.5 -45l6 -40v-314q0 -25 9 -46h124v-48h-150q-10 10 -20.5 36t-10.5 58v326
l-6 40q10 19 25 50t40.5 60t64.5 50t97 21q46 0 86 -17.5t70 -47.5t47.5 -70t17.5 -86v-250q1 -28 12 -52t29.5 -42t43 -28.5t52.5 -10.5t53 10.5t44 29.5t29.5 43.5t10.5 53.5v457h48z" />
    <glyph glyph-name="yoyingthai" unicode="&#xad;" horiz-adv-x="950" 
d="M860 631v-457v-211q0 -38 -14.5 -71.5t-40 -58.5t-59 -39.5t-71.5 -14.5t-71.5 14.5t-58.5 39.5t-39.5 58.5t-14.5 71.5h47q0 -29 10.5 -53.5t29.5 -43.5t43.5 -29.5t53.5 -10.5q28 0 53 10.5t44 29.5t29.5 43.5t10.5 53.5v88q-26 -29 -61 -45t-76 -16q-38 0 -71.5 14.5
t-58.5 39.5t-39.5 58.5t-14.5 71.5l-1 246q0 36 -13.5 67.5t-37 55t-55 37t-67.5 13.5q-44 0 -73.5 -15t-50 -37.5t-33 -47.5l-22.5 -45l6 -40v-314q0 -25 9 -46h124v-48h-150q-10 10 -20.5 36t-10.5 58v326l-6 40q10 19 25 50t40.5 60t64.5 50t97 21q46 0 86 -17.5
t70 -47.5t47.5 -70t17.5 -86v-246q0 -29 10.5 -53.5t29.5 -43.5t43.5 -29.5t53.5 -10.5q28 0 53 10.5t44 29.5t29.5 43.5t10.5 53.5v457h48z" />
    <glyph glyph-name="yoyingthai" unicode="&#xe0d;" horiz-adv-x="950" 
d="M860 631v-457v-211q0 -38 -14.5 -71.5t-40 -58.5t-59 -39.5t-71.5 -14.5t-71.5 14.5t-58.5 39.5t-39.5 58.5t-14.5 71.5h47q0 -29 10.5 -53.5t29.5 -43.5t43.5 -29.5t53.5 -10.5q28 0 53 10.5t44 29.5t29.5 43.5t10.5 53.5v88q-26 -29 -61 -45t-76 -16q-38 0 -71.5 14.5
t-58.5 39.5t-39.5 58.5t-14.5 71.5l-1 246q0 36 -13.5 67.5t-37 55t-55 37t-67.5 13.5q-44 0 -73.5 -15t-50 -37.5t-33 -47.5l-22.5 -45l6 -40v-314q0 -25 9 -46h124v-48h-150q-10 10 -20.5 36t-10.5 58v326l-6 40q10 19 25 50t40.5 60t64.5 50t97 21q46 0 86 -17.5
t70 -47.5t47.5 -70t17.5 -86v-246q0 -29 10.5 -53.5t29.5 -43.5t43.5 -29.5t53.5 -10.5q28 0 53 10.5t44 29.5t29.5 43.5t10.5 53.5v457h48z" />
    <glyph glyph-name="yoyingthai" unicode="&#xde;" horiz-adv-x="950" 
d="M860 631v-457v-211q0 -38 -14.5 -71.5t-40 -58.5t-59 -39.5t-71.5 -14.5t-71.5 14.5t-58.5 39.5t-39.5 58.5t-14.5 71.5h47q0 -29 10.5 -53.5t29.5 -43.5t43.5 -29.5t53.5 -10.5q28 0 53 10.5t44 29.5t29.5 43.5t10.5 53.5v88q-26 -29 -61 -45t-76 -16q-38 0 -71.5 14.5
t-58.5 39.5t-39.5 58.5t-14.5 71.5l-1 246q0 36 -13.5 67.5t-37 55t-55 37t-67.5 13.5q-44 0 -73.5 -15t-50 -37.5t-33 -47.5l-22.5 -45l6 -40v-314q0 -25 9 -46h124v-48h-150q-10 10 -20.5 36t-10.5 58v326l-6 40q10 19 25 50t40.5 60t64.5 50t97 21q46 0 86 -17.5
t70 -47.5t47.5 -70t17.5 -86v-246q0 -29 10.5 -53.5t29.5 -43.5t43.5 -29.5t53.5 -10.5q28 0 53 10.5t44 29.5t29.5 43.5t10.5 53.5v457h48z" />
    <glyph glyph-name="dochadathai" unicode="&#xae;" horiz-adv-x="619" 
d="M498 -269h-105l-85 86l-86 -86h-192v48h172l106 106l105 -106h59q9 21 9 46v595q0 36 -13.5 67.5t-37 55t-55 37t-67.5 13.5q-44 0 -73.5 -15t-50 -37.5t-33 -47.5l-22.5 -45l6 -40v-408h-105v48h57v372l-6 40q10 19 25 50t40.5 60t64.5 50t97 21q46 0 86 -17.5t70 -47.5
t47.5 -70t17.5 -86v-595q0 -22 -5 -39.5t-11 -29.5q-7 -14 -15 -25z" />
    <glyph glyph-name="dochadathai" unicode="&#xe0e;" horiz-adv-x="619" 
d="M498 -269h-105l-85 86l-86 -86h-192v48h172l106 106l105 -106h59q9 21 9 46v595q0 36 -13.5 67.5t-37 55t-55 37t-67.5 13.5q-44 0 -73.5 -15t-50 -37.5t-33 -47.5l-22.5 -45l6 -40v-408h-105v48h57v372l-6 40q10 19 25 50t40.5 60t64.5 50t97 21q46 0 86 -17.5t70 -47.5
t47.5 -70t17.5 -86v-595q0 -22 -5 -39.5t-11 -29.5q-7 -14 -15 -25z" />
    <glyph glyph-name="topatakthai" unicode="&#xaf;" horiz-adv-x="619" 
d="M529 -175q0 -22 -5 -39.5t-11 -29.5t-10.5 -18.5l-4.5 -6.5h-60l-85 86l-86 -86l-86 86l-85 -86h-66v48h46l105 106l86 -86l86 86l105 -106h14q9 21 9 46v595q0 36 -13.5 67.5t-37 55t-55 37t-67.5 13.5q-44 0 -73.5 -15t-50 -37.5t-33 -47.5l-22.5 -45l6 -40v-408h-105
v48h57v372l-6 40q10 19 25 50t40.5 60t64.5 50t97 21q46 0 86 -17.5t70 -47.5t47.5 -70t17.5 -86v-595z" />
    <glyph glyph-name="topatakthai" unicode="&#xe0f;" horiz-adv-x="619" 
d="M529 -175q0 -22 -5 -39.5t-11 -29.5t-10.5 -18.5l-4.5 -6.5h-60l-85 86l-86 -86l-86 86l-85 -86h-66v48h46l105 106l86 -86l86 86l105 -106h14q9 21 9 46v595q0 36 -13.5 67.5t-37 55t-55 37t-67.5 13.5q-44 0 -73.5 -15t-50 -37.5t-33 -47.5l-22.5 -45l6 -40v-408h-105
v48h57v372l-6 40q10 19 25 50t40.5 60t64.5 50t97 21q46 0 86 -17.5t70 -47.5t47.5 -70t17.5 -86v-595z" />
    <glyph glyph-name="thothanthai" unicode="&#xb0;" horiz-adv-x="559" 
d="M251 593q-36 0 -67.5 -13.5t-55 -37t-37 -55t-13.5 -67.5h-48q0 46 17.5 86t47.5 70t70 47.5t86 17.5q48 0 88.5 -18t70.5 -49q15 10 15 34v33h47v-33q0 -21 -7 -41t-25 -32q15 -25 23.5 -54t8.5 -61v-420h-48v267h-129v48h129v105q0 36 -13.5 67.5t-37 55t-55 37
t-67.5 13.5zM498 -221h-60l-85 86l-86 -86l-86 86l-85 -86h-66v48h46l105 106l86 -86l86 86l105 -106h13q10 19 10 46h48q0 -22 -5 -39t-11 -29q-7 -14 -15 -26z" />
    <glyph glyph-name="thothanthai" unicode="&#xe10;" horiz-adv-x="559" 
d="M251 593q-36 0 -67.5 -13.5t-55 -37t-37 -55t-13.5 -67.5h-48q0 46 17.5 86t47.5 70t70 47.5t86 17.5q48 0 88.5 -18t70.5 -49q15 10 15 34v33h47v-33q0 -21 -7 -41t-25 -32q15 -25 23.5 -54t8.5 -61v-420h-48v267h-129v48h129v105q0 36 -13.5 67.5t-37 55t-55 37
t-67.5 13.5zM498 -221h-60l-85 86l-86 -86l-86 86l-85 -86h-66v48h46l105 106l86 -86l86 86l105 -106h13q10 19 10 46h48q0 -22 -5 -39t-11 -29q-7 -14 -15 -26z" />
    <glyph glyph-name="thonangmonthothai" unicode="&#xb1;" horiz-adv-x="696" 
d="M385 641q46 0 86 -17.5t70 -47.5t47.5 -70t17.5 -86v-420h-48v420q0 36 -13.5 67.5t-37 55t-55 37t-67.5 13.5t-67.5 -13.5t-55 -37t-37 -55t-13.5 -67.5v-420h-48v571l-68 -68l-37 35.5l-29 26.5v65l66 -60l60 60h56v-73q31 38 75.5 61t97.5 23z" />
    <glyph glyph-name="thonangmonthothai" unicode="&#xe11;" horiz-adv-x="696" 
d="M385 641q46 0 86 -17.5t70 -47.5t47.5 -70t17.5 -86v-420h-48v420q0 36 -13.5 67.5t-37 55t-55 37t-67.5 13.5t-67.5 -13.5t-55 -37t-37 -55t-13.5 -67.5v-420h-48v571l-68 -68l-37 35.5l-29 26.5v65l66 -60l60 60h56v-73q31 38 75.5 61t97.5 23z" />
    <glyph glyph-name="thophuthaothai" unicode="&#xb2;" horiz-adv-x="943" 
d="M853 631v-457q0 -38 -14.5 -71.5t-39.5 -58.5t-58.5 -39.5t-71.5 -14.5q-41 0 -76 16t-61 45v-51h-48v444q0 42 -18 77t-48 59l-107 -108l-107 108q-30 -24 -48 -59t-18 -77v-350q0 -25 9 -46h118q10 19 10 46h48q0 -15 -3 -29.5t-8 -27.5t-10.5 -23t-10.5 -14h-170
q-9 9 -20 35t-11 59v350q0 59 28.5 109t91.5 88l101 -101l100 101q63 -35 92 -87.5t29 -109.5v-274q1 -28 12 -52t29.5 -42t43 -28.5t52.5 -10.5t53 10.5t44 29.5t29.5 43.5t10.5 53.5v457h47z" />
    <glyph glyph-name="thophuthaothai" unicode="&#xe12;" horiz-adv-x="943" 
d="M853 631v-457q0 -38 -14.5 -71.5t-39.5 -58.5t-58.5 -39.5t-71.5 -14.5q-41 0 -76 16t-61 45v-51h-48v444q0 42 -18 77t-48 59l-107 -108l-107 108q-30 -24 -48 -59t-18 -77v-350q0 -25 9 -46h118q10 19 10 46h48q0 -15 -3 -29.5t-8 -27.5t-10.5 -23t-10.5 -14h-170
q-9 9 -20 35t-11 59v350q0 59 28.5 109t91.5 88l101 -101l100 101q63 -35 92 -87.5t29 -109.5v-274q1 -28 12 -52t29.5 -42t43 -28.5t52.5 -10.5t53 10.5t44 29.5t29.5 43.5t10.5 53.5v457h47z" />
    <glyph glyph-name="nonenthai" unicode="&#xb3;" horiz-adv-x="949" 
d="M859 630v-630h-48v51q-26 -29 -61 -45t-76 -16q-38 0 -71.5 14.5t-58.5 39.5t-39.5 58.5t-14.5 71.5v246q0 36 -13.5 67.5t-37 55t-55 37t-67.5 13.5q-44 0 -73.5 -15t-50 -37.5t-33 -47.5l-22.5 -45l6 -40v-314q0 -25 9 -46h124v-48h-150q-10 10 -20.5 36t-10.5 58v326
l-6 40q10 19 25 50t40.5 60t64.5 50t97 21q46 0 86 -17.5t70 -47.5t47.5 -70t17.5 -86v-246q0 -29 10.5 -53.5t29 -43.5t43 -29.5t53.5 -10.5q28 0 52.5 10.5t43 28.5t29.5 42t12 52v460h48z" />
    <glyph glyph-name="nonenthai" unicode="&#xe13;" horiz-adv-x="949" 
d="M859 630v-630h-48v51q-26 -29 -61 -45t-76 -16q-38 0 -71.5 14.5t-58.5 39.5t-39.5 58.5t-14.5 71.5v246q0 36 -13.5 67.5t-37 55t-55 37t-67.5 13.5q-44 0 -73.5 -15t-50 -37.5t-33 -47.5l-22.5 -45l6 -40v-314q0 -25 9 -46h124v-48h-150q-10 10 -20.5 36t-10.5 58v326
l-6 40q10 19 25 50t40.5 60t64.5 50t97 21q46 0 86 -17.5t70 -47.5t47.5 -70t17.5 -86v-246q0 -29 10.5 -53.5t29 -43.5t43 -29.5t53.5 -10.5q28 0 52.5 10.5t43 28.5t29.5 42t12 52v460h48z" />
    <glyph glyph-name="dodekthai" unicode="&#xb4;" 
d="M311 641q46 0 86 -17.5t70 -47.5t47.5 -70t17.5 -86v-420h-48v420q0 36 -13.5 67.5t-37 55t-55 37t-67.5 13.5t-67.5 -13.5t-55 -37t-37 -55t-13.5 -67.5v-269q0 -21 4.5 -41.5t15 -36t27 -25.5t40.5 -10q22 0 43 8t34 26q4 8 4 16h48q0 -13 -5 -28q-7 -18 -20.5 -31
t-30.5 -22t-36 -13t-37 -4q-33 0 -58.5 13t-42.5 35.5t-25.5 52t-8.5 61.5v268q0 46 17.5 86t47.5 70t70 47.5t86 17.5z" />
    <glyph glyph-name="dodekthai" unicode="&#xe14;" 
d="M311 641q46 0 86 -17.5t70 -47.5t47.5 -70t17.5 -86v-420h-48v420q0 36 -13.5 67.5t-37 55t-55 37t-67.5 13.5t-67.5 -13.5t-55 -37t-37 -55t-13.5 -67.5v-269q0 -21 4.5 -41.5t15 -36t27 -25.5t40.5 -10q22 0 43 8t34 26q4 8 4 16h48q0 -13 -5 -28q-7 -18 -20.5 -31
t-30.5 -22t-36 -13t-37 -4q-33 0 -58.5 13t-42.5 35.5t-25.5 52t-8.5 61.5v268q0 46 17.5 86t47.5 70t70 47.5t86 17.5z" />
    <glyph glyph-name="totaothai" unicode="&#xb5;" 
d="M138 152q0 -21 4.5 -41.5t15 -36.5t27 -26t40.5 -10q22 0 43 8t34 26q4 8 4 16h48q0 -13 -5 -28q-7 -18 -20.5 -31t-30.5 -22t-36 -13t-37 -4q-33 0 -58.5 13t-42.5 35.5t-25.5 52t-8.5 61.5v292q0 58 29 110t92 87l100 -101l101 101q56 -29 88 -81.5t32 -115.5v-1v-443
h-48v443v1q0 42 -18 77t-48 59l-107 -108l-107 108q-30 -24 -48 -59t-18 -77v-1v-291z" />
    <glyph glyph-name="totaothai" unicode="&#xe15;" 
d="M138 152q0 -21 4.5 -41.5t15 -36.5t27 -26t40.5 -10q22 0 43 8t34 26q4 8 4 16h48q0 -13 -5 -28q-7 -18 -20.5 -31t-30.5 -22t-36 -13t-37 -4q-33 0 -58.5 13t-42.5 35.5t-25.5 52t-8.5 61.5v292q0 58 29 110t92 87l100 -101l101 101q56 -29 88 -81.5t32 -115.5v-1v-443
h-48v443v1q0 42 -18 77t-48 59l-107 -108l-107 108q-30 -24 -48 -59t-18 -77v-1v-291z" />
    <glyph glyph-name="thothungthai" unicode="&#xb6;" horiz-adv-x="628" 
d="M317 641q46 0 86 -17.5t70 -47.5t47.5 -70t17.5 -86v-420h-48v420q0 36 -13.5 67.5t-37 55t-55 37t-67.5 13.5q-44 0 -73.5 -15t-49.5 -37.5t-33 -47.5l-23 -45l6 -40v-314q0 -25 9 -46h124v-48h-150q-9 10 -20 36t-11 58v326l-6 40l25.5 51t41.5 60t64.5 49.5t95.5 20.5
z" />
    <glyph glyph-name="thothungthai" unicode="&#xe16;" horiz-adv-x="628" 
d="M317 641q46 0 86 -17.5t70 -47.5t47.5 -70t17.5 -86v-420h-48v420q0 36 -13.5 67.5t-37 55t-55 37t-67.5 13.5q-44 0 -73.5 -15t-49.5 -37.5t-33 -47.5l-23 -45l6 -40v-314q0 -25 9 -46h124v-48h-150q-9 10 -20 36t-11 58v326l-6 40l25.5 51t41.5 60t64.5 49.5t95.5 20.5
z" />
    <glyph glyph-name="thothahanthai" unicode="&#xb7;" 
d="M311 641q46 0 86 -17.5t70 -47.5t47.5 -70t17.5 -86v-420h-48v420q0 36 -13.5 67.5t-37 55t-55 37t-67.5 13.5t-67.5 -13.5t-55 -37t-37 -55t-13.5 -67.5v-420h-48v630h48v-73q31 38 75.5 61t97.5 23z" />
    <glyph glyph-name="thothahanthai" unicode="&#x2219;" 
d="M311 641q46 0 86 -17.5t70 -47.5t47.5 -70t17.5 -86v-420h-48v420q0 36 -13.5 67.5t-37 55t-55 37t-67.5 13.5t-67.5 -13.5t-55 -37t-37 -55t-13.5 -67.5v-420h-48v630h48v-73q31 38 75.5 61t97.5 23z" />
    <glyph glyph-name="thothahanthai" unicode="&#xe17;" 
d="M311 641q46 0 86 -17.5t70 -47.5t47.5 -70t17.5 -86v-420h-48v420q0 36 -13.5 67.5t-37 55t-55 37t-67.5 13.5t-67.5 -13.5t-55 -37t-37 -55t-13.5 -67.5v-420h-48v630h48v-73q31 38 75.5 61t97.5 23z" />
    <glyph glyph-name="thothongthai" unicode="&#xb8;" horiz-adv-x="582" 
d="M126 484q0 -46 29 -73t73 -45.5t95 -33.5t95 -37t73 -56.5t29 -91.5q0 -49 -18.5 -80.5t-51 -49.5t-75 -23.5t-90.5 -2.5t-98.5 13t-97.5 23v4v223h47v-189q28 -7 64 -14t73 -10t73 -0.5t64 14t45 33.5t17 58q0 46 -29 73t-73 45.5t-95 33.5t-95 37t-73 56.5t-29 91.5
q0 49 19 81t51 49.5t74.5 23t90.5 2.5t98.5 -13t97.5 -23v-51q-20 8 -56 17.5t-78.5 16t-86.5 7.5t-80 -9.5t-59 -34t-23 -65.5z" />
    <glyph glyph-name="thothongthai" unicode="&#xe18;" horiz-adv-x="582" 
d="M126 484q0 -46 29 -73t73 -45.5t95 -33.5t95 -37t73 -56.5t29 -91.5q0 -49 -18.5 -80.5t-51 -49.5t-75 -23.5t-90.5 -2.5t-98.5 13t-97.5 23v4v223h47v-189q28 -7 64 -14t73 -10t73 -0.5t64 14t45 33.5t17 58q0 46 -29 73t-73 45.5t-95 33.5t-95 37t-73 56.5t-29 91.5
q0 49 19 81t51 49.5t74.5 23t90.5 2.5t98.5 -13t97.5 -23v-51q-20 8 -56 17.5t-78.5 16t-86.5 7.5t-80 -9.5t-59 -34t-23 -65.5z" />
    <glyph glyph-name="nonuthai" unicode="&#xb9;" 
d="M484 72q-31 -38 -75.5 -60t-97.5 -22q-46 0 -86 17t-70 47t-47.5 69.5t-17.5 84.5v422h48v-422q0 -35 13.5 -66.5t37 -54.5t55 -36.5t67.5 -13.5t67.5 13.5t55 36.5t37 54.5t13.5 66.5v422h48v-630h-48v72z" />
    <glyph glyph-name="nonuthai" unicode="&#xe19;" 
d="M484 72q-31 -38 -75.5 -60t-97.5 -22q-46 0 -86 17t-70 47t-47.5 69.5t-17.5 84.5v422h48v-422q0 -35 13.5 -66.5t37 -54.5t55 -36.5t67.5 -13.5t67.5 13.5t55 36.5t37 54.5t13.5 66.5v422h48v-630h-48v72z" />
    <glyph glyph-name="bobaimaithai" unicode="&#xba;" 
d="M311 -10q-46 0 -86 17t-70 47t-47.5 69.5t-17.5 84.5v422h48v-422q0 -35 13.5 -66.5t37 -54.5t55 -36.5t67.5 -13.5t67.5 13.5t55.5 36.5t37 54.5t13 66.5v422h48v-422q0 -45 -17 -84.5t-47 -69.5t-70.5 -47t-86.5 -17z" />
    <glyph glyph-name="bobaimaithai" unicode="&#xe1a;" 
d="M311 -10q-46 0 -86 17t-70 47t-47.5 69.5t-17.5 84.5v422h48v-422q0 -35 13.5 -66.5t37 -54.5t55 -36.5t67.5 -13.5t67.5 13.5t55.5 36.5t37 54.5t13 66.5v422h48v-422q0 -45 -17 -84.5t-47 -69.5t-70.5 -47t-86.5 -17z" />
    <glyph glyph-name="poplathai" unicode="&#xbb;" 
d="M532 208q0 -45 -17.5 -84.5t-47.5 -69.5t-70 -47t-86 -17t-86 17t-70 47t-47.5 69.5t-17.5 84.5v422h48v-422q0 -35 13.5 -66.5t37 -54.5t55 -36.5t67.5 -13.5t67.5 13.5t55 36.5t37 54.5t13.5 66.5v633h48v-633z" />
    <glyph glyph-name="poplathai" unicode="&#xe1b;" 
d="M532 208q0 -45 -17.5 -84.5t-47.5 -69.5t-70 -47t-86 -17t-86 17t-70 47t-47.5 69.5t-17.5 84.5v422h48v-422q0 -35 13.5 -66.5t37 -54.5t55 -36.5t67.5 -13.5t67.5 13.5t55 36.5t37 54.5t13.5 66.5v633h48v-633z" />
    <glyph glyph-name="phophungthai" unicode="&#xbc;" 
d="M484 630h48v-446q0 -51 -21.5 -94t-49 -66t-49.5 -34l-101 99l-100 -99q-24 11 -51 34t-48.5 66t-21.5 94v446h153v-47h-105v-399q0 -41 18 -75.5t48 -58.5l107 106l107 -106q30 24 48 58.5t18 75.5v446z" />
    <glyph glyph-name="phophungthai" unicode="&#xe1c;" 
d="M484 630h48v-446q0 -51 -21.5 -94t-49 -66t-49.5 -34l-101 99l-100 -99q-24 11 -51 34t-48.5 66t-21.5 94v446h153v-47h-105v-399q0 -41 18 -75.5t48 -58.5l107 106l107 -106q30 24 48 58.5t18 75.5v446z" />
    <glyph glyph-name="fofathai" unicode="&#xbd;" 
d="M484 841h48v-657q0 -51 -21.5 -94t-48.5 -66t-51 -34l-99 99l-101 -99q-24 11 -51 34t-48.5 66t-21.5 94v446h154v-47h-106v-399q0 -41 18 -75.5t48 -58.5l108 106l106 -106q30 24 48 58.5t18 75.5v657z" />
    <glyph glyph-name="fofathai" unicode="&#xe1d;" 
d="M484 841h48v-657q0 -51 -21.5 -94t-48.5 -66t-51 -34l-99 99l-101 -99q-24 11 -51 34t-48.5 66t-21.5 94v446h154v-47h-106v-399q0 -41 18 -75.5t48 -58.5l108 106l106 -106q30 24 48 58.5t18 75.5v657z" />
    <glyph glyph-name="phophanthai" unicode="&#xbe;" 
d="M532 174q0 -63 -28 -106t-76 -79l-117 437l-117 -437q-54 35 -79 84t-25 101v456h48v-456q0 -54 31 -97l105 397h73l106 -397q31 43 31 97v456h48v-456z" />
    <glyph glyph-name="phophanthai" unicode="&#xe1e;" 
d="M532 174q0 -63 -28 -106t-76 -79l-117 437l-117 -437q-54 35 -79 84t-25 101v456h48v-456q0 -54 31 -97l105 397h73l106 -397q31 43 31 97v456h48v-456z" />
    <glyph glyph-name="fofanthai" unicode="&#xbf;" 
d="M532 174q0 -63 -28 -106t-76 -79l-117 437l-117 -437q-54 35 -79 84t-25 101v456h48v-456q0 -54 31 -97l105 397h73l106 -397q31 43 31 97v667h48v-667z" />
    <glyph glyph-name="fofanthai" unicode="&#xe1f;" 
d="M532 174q0 -63 -28 -106t-76 -79l-117 437l-117 -437q-54 35 -79 84t-25 101v456h48v-456q0 -54 31 -97l105 397h73l106 -397q31 43 31 97v667h48v-667z" />
    <glyph glyph-name="phosamphaothai" unicode="&#xc0;" horiz-adv-x="619" 
d="M308 641q46 0 86 -17t70 -47t47.5 -69.5t17.5 -84.5v-423h-48v423q0 35 -13.5 66t-37 54t-55 36.5t-67.5 13.5q-44 0 -73.5 -15t-50 -37t-33 -47l-22.5 -44l6 -39v1v-412h-105v48h57v375l-6 39q10 19 24.5 49.5t40 59t64.5 49.5t98 21z" />
    <glyph glyph-name="phosamphaothai" unicode="&#xe20;" horiz-adv-x="619" 
d="M308 641q46 0 86 -17t70 -47t47.5 -69.5t17.5 -84.5v-423h-48v423q0 35 -13.5 66t-37 54t-55 36.5t-67.5 13.5q-44 0 -73.5 -15t-50 -37t-33 -47l-22.5 -44l6 -39v1v-412h-105v48h57v375l-6 39q10 19 24.5 49.5t40 59t64.5 49.5t98 21z" />
    <glyph glyph-name="momathai" unicode="&#xc1;" horiz-adv-x="623" 
d="M485 630h48v-419q0 -46 -17.5 -86t-47.5 -70t-70.5 -47.5t-86.5 -17.5q-53 0 -97.5 22.5t-75.5 60.5v-73h-48v630h48v-419q0 -36 13.5 -67.5t37 -55t55 -37t67.5 -13.5t67.5 13.5t55.5 37t37.5 55t13.5 67.5v419z" />
    <glyph glyph-name="momathai" unicode="&#xe21;" horiz-adv-x="623" 
d="M485 630h48v-419q0 -46 -17.5 -86t-47.5 -70t-70.5 -47.5t-86.5 -17.5q-53 0 -97.5 22.5t-75.5 60.5v-73h-48v630h48v-419q0 -36 13.5 -67.5t37 -55t55 -37t67.5 -13.5t67.5 13.5t55.5 37t37.5 55t13.5 67.5v419z" />
    <glyph glyph-name="yoyakthai" unicode="&#xc2;" 
d="M532 630v-599v-4q-54 -15 -111 -25.5t-110 -11.5q-46 0 -86 17.5t-70 47.5t-47.5 70t-17.5 86q0 64 24 110t64 77q-38 10 -63 41t-25 83q0 49 32 81t78 38h111v-48h-103q-29 0 -49.5 -21t-20.5 -50q0 -39 20.5 -59.5t49.5 -20.5h103v-48q-36 -2 -67.5 -14t-55 -35.5
t-37 -57t-13.5 -76.5q0 -36 13.5 -67.5t37 -55t55 -37t67.5 -13.5q46 1 92.5 9.5t81.5 17.5v565h47z" />
    <glyph glyph-name="yoyakthai" unicode="&#xe22;" 
d="M532 630v-599v-4q-54 -15 -111 -25.5t-110 -11.5q-46 0 -86 17.5t-70 47.5t-47.5 70t-17.5 86q0 64 24 110t64 77q-38 10 -63 41t-25 83q0 49 32 81t78 38h111v-48h-103q-29 0 -49.5 -21t-20.5 -50q0 -39 20.5 -59.5t49.5 -20.5h103v-48q-36 -2 -67.5 -14t-55 -35.5
t-37 -57t-13.5 -76.5q0 -36 13.5 -67.5t37 -55t55 -37t67.5 -13.5q46 1 92.5 9.5t81.5 17.5v565h47z" />
    <glyph glyph-name="roruathai" unicode="&#xc3;" horiz-adv-x="566" 
d="M110 484q0 -46 29 -73t73 -45.5t95 -33.5t95 -37t73 -56.5t29 -91.5q0 -49 -18.5 -80.5t-51 -49.5t-75 -23.5t-90.5 -2.5t-98.5 13t-97.5 23v51q19 -6 54.5 -15.5t78 -16t87 -7.5t81 8.5t59.5 33t23 65.5q0 46 -29 73t-73 45.5t-95 33.5t-95 37t-73 56.5t-29 91.5
q0 49 19 81t51 49.5t74.5 23t90.5 2.5t98.5 -13t97.5 -23v-51q-20 8 -56 17.5t-78.5 16t-86.5 7.5t-80 -9.5t-59 -34t-23 -65.5z" />
    <glyph glyph-name="roruathai" unicode="&#xe23;" horiz-adv-x="566" 
d="M110 484q0 -46 29 -73t73 -45.5t95 -33.5t95 -37t73 -56.5t29 -91.5q0 -49 -18.5 -80.5t-51 -49.5t-75 -23.5t-90.5 -2.5t-98.5 13t-97.5 23v51q19 -6 54.5 -15.5t78 -16t87 -7.5t81 8.5t59.5 33t23 65.5q0 46 -29 73t-73 45.5t-95 33.5t-95 37t-73 56.5t-29 91.5
q0 49 19 81t51 49.5t74.5 23t90.5 2.5t98.5 -13t97.5 -23v-51q-20 8 -56 17.5t-78.5 16t-86.5 7.5t-80 -9.5t-59 -34t-23 -65.5z" />
    <glyph glyph-name="ruthai" unicode="&#xc4;" horiz-adv-x="628" 
d="M317 641q46 0 86 -17.5t70 -47.5t47.5 -70t17.5 -86v-687h-48v687q0 36 -13.5 67.5t-37 55t-55 37t-67.5 13.5q-44 0 -73.5 -15t-49.5 -37.5t-33 -47.5l-23 -45l6 -40v-314q0 -25 9 -46h124v-48h-150q-9 10 -20 36t-11 58v326l-6 40l25.5 51t41.5 60t64.5 49.5t95.5 20.5
z" />
    <glyph glyph-name="ruthai" unicode="&#xe24;" horiz-adv-x="628" 
d="M317 641q46 0 86 -17.5t70 -47.5t47.5 -70t17.5 -86v-687h-48v687q0 36 -13.5 67.5t-37 55t-55 37t-67.5 13.5q-44 0 -73.5 -15t-49.5 -37.5t-33 -47.5l-23 -45l6 -40v-314q0 -25 9 -46h124v-48h-150q-9 10 -20 36t-11 58v326l-6 40l25.5 51t41.5 60t64.5 49.5t95.5 20.5
z" />
    <glyph glyph-name="lolingthai" unicode="&#xc5;" 
d="M532 0h-48v338q-12 -12 -25 -20t-40 -17t-74.5 -22.5l-129.5 -37.5q-33 -11 -54.5 -39.5t-21.5 -65.5q0 -42 27.5 -70t69.5 -28h70v-48h-70q-30 0 -56.5 11.5t-46.5 31.5t-31.5 46.5t-11.5 56.5q0 47 25 84q29 48 82 65q1 1 6.5 2.5l26.5 7.5l63.5 18.5l118.5 35.5
q17 6 32 17.5t24.5 27.5t12 36t-4.5 43q-18 52 -62.5 86t-102.5 34q-36 0 -67.5 -13.5t-55 -37t-37 -55t-13.5 -67.5h-48q0 46 17.5 86t47.5 70t70 47.5t86 17.5q45 0 85 -16.5t70 -46t48 -70t18 -88.5v-420z" />
    <glyph glyph-name="lolingthai" unicode="&#xe25;" 
d="M532 0h-48v338q-12 -12 -25 -20t-40 -17t-74.5 -22.5l-129.5 -37.5q-33 -11 -54.5 -39.5t-21.5 -65.5q0 -42 27.5 -70t69.5 -28h70v-48h-70q-30 0 -56.5 11.5t-46.5 31.5t-31.5 46.5t-11.5 56.5q0 47 25 84q29 48 82 65q1 1 6.5 2.5l26.5 7.5l63.5 18.5l118.5 35.5
q17 6 32 17.5t24.5 27.5t12 36t-4.5 43q-18 52 -62.5 86t-102.5 34q-36 0 -67.5 -13.5t-55 -37t-37 -55t-13.5 -67.5h-48q0 46 17.5 86t47.5 70t70 47.5t86 17.5q45 0 85 -16.5t70 -46t48 -70t18 -88.5v-420z" />
    <glyph glyph-name="luthai" unicode="&#xc6;" horiz-adv-x="619" 
d="M308 641q46 0 86 -17t70 -47t47.5 -69.5t17.5 -84.5v-691h-48v691q0 35 -13.5 66t-37 54t-55 36.5t-67.5 13.5q-44 0 -73.5 -15t-50 -37t-33 -47l-22.5 -44l6 -39v1v-412h-105v48h57v375l-6 39q10 19 24.5 49.5t40 59t64.5 49.5t98 21z" />
    <glyph glyph-name="luthai" unicode="&#xe26;" horiz-adv-x="619" 
d="M308 641q46 0 86 -17t70 -47t47.5 -69.5t17.5 -84.5v-691h-48v691q0 35 -13.5 66t-37 54t-55 36.5t-67.5 13.5q-44 0 -73.5 -15t-50 -37t-33 -47l-22.5 -44l6 -39v1v-412h-105v48h57v375l-6 39q10 19 24.5 49.5t40 59t64.5 49.5t98 21z" />
    <glyph glyph-name="wowaenthai" unicode="&#xc7;" horiz-adv-x="583" 
d="M272 641q46 0 86 -17.5t70 -47.5t47.5 -70t17.5 -86v-209q0 -46 -17.5 -86t-47.5 -70t-70 -47.5t-86 -17.5q-40 0 -76 13.5t-64.5 36.5t-48.5 55t-28 69h51q7 -27 23 -50.5t37.5 -40t48.5 -26t57 -9.5q36 0 67.5 13.5t55 37t37 55t13.5 67.5v209q0 36 -13.5 67.5t-37 55
t-55 37t-67.5 13.5q-30 0 -57 -9.5t-48.5 -26t-37.5 -40t-23 -50.5h-51q8 37 28 69t48.5 55.5t64.5 36.5t76 13z" />
    <glyph glyph-name="wowaenthai" unicode="&#xe27;" horiz-adv-x="583" 
d="M272 641q46 0 86 -17.5t70 -47.5t47.5 -70t17.5 -86v-209q0 -46 -17.5 -86t-47.5 -70t-70 -47.5t-86 -17.5q-40 0 -76 13.5t-64.5 36.5t-48.5 55t-28 69h51q7 -27 23 -50.5t37.5 -40t48.5 -26t57 -9.5q36 0 67.5 13.5t55 37t37 55t13.5 67.5v209q0 36 -13.5 67.5t-37 55
t-55 37t-67.5 13.5q-30 0 -57 -9.5t-48.5 -26t-37.5 -40t-23 -50.5h-51q8 37 28 69t48.5 55.5t64.5 36.5t76 13z" />
    <glyph glyph-name="sosalathai" unicode="&#xc8;" 
d="M500 536q15 -26 23.5 -55t8.5 -61v-420h-48v420q0 36 -13.5 67.5t-37 55t-55 37t-67.5 13.5t-67.5 -13.5t-55 -37t-37 -55t-13.5 -67.5v-105h173v-48h-173v-267h-48v420q0 46 17.5 86.5t47.5 70.5t70 47t86 17q48 0 88.5 -17.5t70.5 -49.5q7 -1 11 10t4 24v33h47v-33
q0 -20 -7 -40.5t-25 -31.5z" />
    <glyph glyph-name="sosalathai" unicode="&#xe28;" 
d="M500 536q15 -26 23.5 -55t8.5 -61v-420h-48v420q0 36 -13.5 67.5t-37 55t-55 37t-67.5 13.5t-67.5 -13.5t-55 -37t-37 -55t-13.5 -67.5v-105h173v-48h-173v-267h-48v420q0 46 17.5 86.5t47.5 70.5t70 47t86 17q48 0 88.5 -17.5t70.5 -49.5q7 -1 11 10t4 24v33h47v-33
q0 -20 -7 -40.5t-25 -31.5z" />
    <glyph glyph-name="sorusithai" unicode="&#xc9;" horiz-adv-x="623" 
d="M578 315h-46v-107q0 -45 -17 -84.5t-47 -69.5t-70.5 -47t-86.5 -17t-86 17t-70 47t-47.5 69.5t-17.5 84.5v422h48v-422q0 -35 13.5 -66.5t37 -54.5t55 -36.5t67.5 -13.5t68 13.5t55 36.5t36.5 54.5t13.5 66.5v107h-68q-11 0 -25.5 6t-27 17t-21 28t-8.5 38v42h48v-42
q0 -17 11 -28t27 -13h64v267h48v-267h46v-48z" />
    <glyph glyph-name="sorusithai" unicode="&#xe29;" horiz-adv-x="623" 
d="M578 315h-46v-107q0 -45 -17 -84.5t-47 -69.5t-70.5 -47t-86.5 -17t-86 17t-70 47t-47.5 69.5t-17.5 84.5v422h48v-422q0 -35 13.5 -66.5t37 -54.5t55 -36.5t67.5 -13.5t68 13.5t55 36.5t36.5 54.5t13.5 66.5v107h-68q-11 0 -25.5 6t-27 17t-21 28t-8.5 38v42h48v-42
q0 -17 11 -28t27 -13h64v267h48v-267h46v-48z" />
    <glyph glyph-name="sosuathai" unicode="&#xca;" horiz-adv-x="602" 
d="M509 580q-6 -30 -28 -45q31 -51 31 -115v-420h-48v338q-12 -12 -25 -20t-40 -17t-74.5 -22.5l-129.5 -37.5q-33 -11 -54.5 -39.5t-21.5 -65.5q0 -42 27.5 -70t69.5 -28h70v-48h-70q-30 0 -56.5 11.5t-46.5 31.5t-31.5 46.5t-11.5 56.5q0 47 25 84q29 48 82 65
q1 1 6.5 2.5l26.5 7.5l63.5 18.5l118.5 35.5q17 6 32 17.5t24.5 27.5t12 36t-4.5 43q-18 52 -62.5 86t-102.5 34q-36 0 -67.5 -13.5t-55 -37t-37 -55t-13.5 -67.5h-48q0 46 17.5 86t47.5 70t70 47.5t86 17.5q47 0 88 -17.5t72 -49.5q14 10 14 34v33h47v-33q0 -15 -3 -28z
" />
    <glyph glyph-name="sosuathai" unicode="&#xe2a;" horiz-adv-x="602" 
d="M509 580q-6 -30 -28 -45q31 -51 31 -115v-420h-48v338q-12 -12 -25 -20t-40 -17t-74.5 -22.5l-129.5 -37.5q-33 -11 -54.5 -39.5t-21.5 -65.5q0 -42 27.5 -70t69.5 -28h70v-48h-70q-30 0 -56.5 11.5t-46.5 31.5t-31.5 46.5t-11.5 56.5q0 47 25 84q29 48 82 65
q1 1 6.5 2.5l26.5 7.5l63.5 18.5l118.5 35.5q17 6 32 17.5t24.5 27.5t12 36t-4.5 43q-18 52 -62.5 86t-102.5 34q-36 0 -67.5 -13.5t-55 -37t-37 -55t-13.5 -67.5h-48q0 46 17.5 86t47.5 70t70 47.5t86 17.5q47 0 88 -17.5t72 -49.5q14 10 14 34v33h47v-33q0 -15 -3 -28z
" />
    <glyph glyph-name="hohipthai" unicode="&#xcb;" 
d="M532 601q0 -42 -25.5 -74.5t-63.5 -43.5q41 -30 65 -76t24 -101v-306h-48v306q0 36 -13.5 67.5t-37 55t-55 37t-67.5 13.5t-67.5 -13.5t-55 -37t-37 -55t-13.5 -67.5v-306h-48v631h48v-188q31 38 75.5 61t97.5 23h1h98q31 0 52.5 21.5t21.5 52.5v30h48v-30z" />
    <glyph glyph-name="hohipthai" unicode="&#xe2b;" 
d="M532 601q0 -42 -25.5 -74.5t-63.5 -43.5q41 -30 65 -76t24 -101v-306h-48v306q0 36 -13.5 67.5t-37 55t-55 37t-67.5 13.5t-67.5 -13.5t-55 -37t-37 -55t-13.5 -67.5v-306h-48v631h48v-188q31 38 75.5 61t97.5 23h1h98q31 0 52.5 21.5t21.5 52.5v30h48v-30z" />
    <glyph glyph-name="lochulathai" unicode="&#xcc;" 
d="M532 809q0 -29 -13 -53.5t-34 -41.5q21 -16 34 -40.5t13 -53.5v-444v-1q0 -63 -28 -106.5t-76 -78.5l-117 437l-117 -437q-54 34 -79 83t-25 102v1v454h48v-454v-1q0 -54 31 -97l105 397h73l106 -397q31 43 31 97v1v444q0 29 -20.5 49.5t-49.5 20.5v48q29 0 49.5 20.5
t20.5 49.5v1v32h48v-32v0z" />
    <glyph glyph-name="lochulathai" unicode="&#xe2c;" 
d="M532 809q0 -29 -13 -53.5t-34 -41.5q21 -16 34 -40.5t13 -53.5v-444v-1q0 -63 -28 -106.5t-76 -78.5l-117 437l-117 -437q-54 34 -79 83t-25 102v1v454h48v-454v-1q0 -54 31 -97l105 397h73l106 -397q31 43 31 97v1v444q0 29 -20.5 49.5t-49.5 20.5v48q29 0 49.5 20.5
t20.5 49.5v1v32h48v-32v0z" />
    <glyph glyph-name="oangthai" unicode="&#xcd;" 
d="M311 641q46 0 86 -17.5t70 -47.5t47.5 -70t17.5 -86v-209q0 -46 -17.5 -86t-47.5 -70t-70 -47.5t-86 -17.5t-86 17.5t-70 47.5t-47.5 70t-17.5 86v104h140v-48h-92v-56q0 -36 13.5 -67.5t37 -55t55 -37t67.5 -13.5t67.5 13.5t55 37t37 55t13.5 67.5v209q0 36 -13.5 67.5
t-37 55t-55 37t-67.5 13.5t-67.5 -13.5t-55 -37t-37 -55t-13.5 -67.5h-48q0 46 17.5 86t47.5 70t70 47.5t86 17.5z" />
    <glyph glyph-name="oangthai" unicode="&#xe2d;" 
d="M311 641q46 0 86 -17.5t70 -47.5t47.5 -70t17.5 -86v-209q0 -46 -17.5 -86t-47.5 -70t-70 -47.5t-86 -17.5t-86 17.5t-70 47.5t-47.5 70t-17.5 86v104h140v-48h-92v-56q0 -36 13.5 -67.5t37 -55t55 -37t67.5 -13.5t67.5 13.5t55 37t37 55t13.5 67.5v209q0 36 -13.5 67.5
t-37 55t-55 37t-67.5 13.5t-67.5 -13.5t-55 -37t-37 -55t-13.5 -67.5h-48q0 46 17.5 86t47.5 70t70 47.5t86 17.5z" />
    <glyph glyph-name="honokhukthai" unicode="&#xce;" 
d="M500 536q15 -26 23.5 -55t8.5 -61v-209q0 -46 -17.5 -86t-47.5 -70t-70 -47.5t-86 -17.5t-86 17.5t-70 47.5t-47.5 70t-17.5 86v104h140v-48h-92v-56q0 -36 13.5 -67.5t37 -55t55 -37t67.5 -13.5t67.5 13.5t55 37t37 55t13.5 67.5v209q0 36 -13.5 67.5t-37 55t-55 37
t-67.5 13.5t-67.5 -13.5t-55 -37t-37 -55t-13.5 -67.5h-48q0 46 17.5 86t47.5 70t70 47.5t86 17.5q48 0 88.5 -18t70.5 -49q15 10 15 34v33h47v-33q0 -21 -6.5 -41t-25.5 -31z" />
    <glyph glyph-name="honokhukthai" unicode="&#xe2e;" 
d="M500 536q15 -26 23.5 -55t8.5 -61v-209q0 -46 -17.5 -86t-47.5 -70t-70 -47.5t-86 -17.5t-86 17.5t-70 47.5t-47.5 70t-17.5 86v104h140v-48h-92v-56q0 -36 13.5 -67.5t37 -55t55 -37t67.5 -13.5t67.5 13.5t55 37t37 55t13.5 67.5v209q0 36 -13.5 67.5t-37 55t-55 37
t-67.5 13.5t-67.5 -13.5t-55 -37t-37 -55t-13.5 -67.5h-48q0 46 17.5 86t47.5 70t70 47.5t86 17.5q48 0 88.5 -18t70.5 -49q15 10 15 34v33h47v-33q0 -21 -6.5 -41t-25.5 -31z" />
    <glyph glyph-name="paiyannoithai" unicode="&#xcf;" horiz-adv-x="498" 
d="M339 495q32 -31 50.5 -72t18.5 -89v-1v-23v-531h-48v531v23v1q0 32 -11 61t-31 52q-20 -30 -52 -48t-70 -18q-30 0 -56.5 11.5t-46.5 31t-31.5 46.5t-11.5 57h48q0 -41 28.5 -69.5t69.5 -28.5t69.5 28.5t28.5 69.5h1q9 -5 17 -10.5t16 -12.5q3 -2 5.5 -4.5t5.5 -4.5z" />
    <glyph glyph-name="paiyannoithai" unicode="&#xe2f;" horiz-adv-x="498" 
d="M339 495q32 -31 50.5 -72t18.5 -89v-1v-23v-531h-48v531v23v1q0 32 -11 61t-31 52q-20 -30 -52 -48t-70 -18q-30 0 -56.5 11.5t-46.5 31t-31.5 46.5t-11.5 57h48q0 -41 28.5 -69.5t69.5 -28.5t69.5 28.5t28.5 69.5h1q9 -5 17 -10.5t16 -12.5q3 -2 5.5 -4.5t5.5 -4.5z" />
    <glyph glyph-name="saraathai" unicode="&#xd0;" horiz-adv-x="424" 
d="M172 385q-12 0 -26 6t-26.5 17t-21 28t-8.5 38v42h48v-42q0 -17 11 -28t27 -13h158v-48h-162zM172 133q-12 0 -26 6t-26.5 17t-21 28t-8.5 38v42h48v-42q0 -17 11 -28t27 -13h158v-48h-162z" />
    <glyph glyph-name="saraathai" unicode="&#xe30;" horiz-adv-x="424" 
d="M172 385q-12 0 -26 6t-26.5 17t-21 28t-8.5 38v42h48v-42q0 -17 11 -28t27 -13h158v-48h-162zM172 133q-12 0 -26 6t-26.5 17t-21 28t-8.5 38v42h48v-42q0 -17 11 -28t27 -13h158v-48h-162z" />
    <glyph glyph-name="maihanakatthai" unicode="&#xd1;" horiz-adv-x="0" 
d="M-211 710q-12 0 -26 6t-26.5 17t-21 28t-8.5 38v42h48v-42q0 -17 11 -28t27 -13h207v-48h-211z" />
    <glyph glyph-name="maihanakatthai" unicode="&#xe31;" horiz-adv-x="0" 
d="M-211 710q-12 0 -26 6t-26.5 17t-21 28t-8.5 38v42h48v-42q0 -17 11 -28t27 -13h207v-48h-211z" />
    <glyph glyph-name="saraaathai" unicode="&#xd2;" horiz-adv-x="503" 
d="M229 641q38 0 71.5 -14.5t58.5 -39.5t39.5 -58.5t14.5 -71.5v-457h-47v457q0 28 -11 53t-29.5 43.5t-43.5 29.5t-53 11q-29 0 -53.5 -11t-43.5 -29.5t-29.5 -43.5t-10.5 -53h-47q0 38 14.5 71.5t39.5 58.5t58.5 39.5t71.5 14.5z" />
    <glyph glyph-name="saraaathai" unicode="&#xe32;" horiz-adv-x="503" 
d="M229 641q38 0 71.5 -14.5t58.5 -39.5t39.5 -58.5t14.5 -71.5v-457h-47v457q0 28 -11 53t-29.5 43.5t-43.5 29.5t-53 11q-29 0 -53.5 -11t-43.5 -29.5t-29.5 -43.5t-10.5 -53h-47q0 38 14.5 71.5t39.5 58.5t58.5 39.5t71.5 14.5z" />
    <glyph glyph-name="saraamthai" unicode="&#xd3;" horiz-adv-x="488" 
d="M-99 862q34 0 57.5 -23.5t23.5 -57.5t-23.5 -57.5t-57.5 -23.5t-57.5 23.5t-23.5 57.5t23.5 57.5t57.5 23.5zM-99 738q18 0 30.5 12.5t12.5 30.5t-12.5 30.5t-30.5 12.5t-30.5 -12.5t-12.5 -30.5t12.5 -30.5t30.5 -12.5zM214 641q38 0 71.5 -14.5t58.5 -39.5t39.5 -58.5
t14.5 -71.5v-457h-47v457q0 28 -11 53t-29.5 43.5t-43.5 29.5t-53 11q-29 0 -53.5 -11t-43.5 -29.5t-29.5 -43.5t-10.5 -53h-47q0 38 14.5 71.5t39.5 58.5t58.5 39.5t71.5 14.5z" />
    <glyph glyph-name="saraamthai" unicode="&#xe33;" horiz-adv-x="488" 
d="M-99 862q34 0 57.5 -23.5t23.5 -57.5t-23.5 -57.5t-57.5 -23.5t-57.5 23.5t-23.5 57.5t23.5 57.5t57.5 23.5zM-99 738q18 0 30.5 12.5t12.5 30.5t-12.5 30.5t-30.5 12.5t-30.5 -12.5t-12.5 -30.5t12.5 -30.5t30.5 -12.5zM214 641q38 0 71.5 -14.5t58.5 -39.5t39.5 -58.5
t14.5 -71.5v-457h-47v457q0 28 -11 53t-29.5 43.5t-43.5 29.5t-53 11q-29 0 -53.5 -11t-43.5 -29.5t-29.5 -43.5t-10.5 -53h-47q0 38 14.5 71.5t39.5 58.5t58.5 39.5t71.5 14.5z" />
    <glyph glyph-name="saraithai" unicode="&#xd4;" horiz-adv-x="0" 
d="M-436 709v48h346v-48h-346z" />
    <glyph glyph-name="saraithai" unicode="&#xe34;" horiz-adv-x="0" 
d="M-436 709v48h346v-48h-346z" />
    <glyph glyph-name="saraiithai" unicode="&#xd5;" horiz-adv-x="0" 
d="M-138 757v84h48v-132h-346v48h298z" />
    <glyph glyph-name="saraiithai" unicode="&#xe35;" horiz-adv-x="0" 
d="M-138 757v84h48v-132h-346v48h298z" />
    <glyph glyph-name="sarauethai" unicode="&#xd6;" horiz-adv-x="0" 
d="M-171 872q34 0 57.5 -23.5t23.5 -57.5t-23.5 -57.5t-57.5 -23.5h-1v-1h-264v48h191q-7 15 -7 34q0 34 23.5 57.5t57.5 23.5zM-171 748q18 0 30.5 12.5t12.5 30.5t-12.5 30.5t-30.5 12.5t-30.5 -12.5t-12.5 -30.5t12.5 -30.5t30.5 -12.5z" />
    <glyph glyph-name="sarauethai" unicode="&#xe36;" horiz-adv-x="0" 
d="M-171 872q34 0 57.5 -23.5t23.5 -57.5t-23.5 -57.5t-57.5 -23.5h-1v-1h-264v48h191q-7 15 -7 34q0 34 23.5 57.5t57.5 23.5zM-171 748q18 0 30.5 12.5t12.5 30.5t-12.5 30.5t-30.5 12.5t-30.5 -12.5t-12.5 -30.5t12.5 -30.5t30.5 -12.5z" />
    <glyph glyph-name="saraueethai" unicode="&#xd7;" horiz-adv-x="0" 
d="M-138 757v84h48v-132h-346v48h202v84h48v-84h48z" />
    <glyph glyph-name="saraueethai" unicode="&#xe37;" horiz-adv-x="0" 
d="M-138 757v84h48v-132h-346v48h202v84h48v-84h48z" />
    <glyph glyph-name="sarauthai" unicode="&#xd8;" horiz-adv-x="0" 
d="M-93 -78h3v-60v-136h-48v136v12h-46v48h46h45z" />
    <glyph glyph-name="sarauthai" unicode="&#xe38;" horiz-adv-x="0" 
d="M-93 -78h3v-60v-136h-48v136v12h-46v48h46h45z" />
    <glyph glyph-name="sarauuthai" unicode="&#xd9;" horiz-adv-x="0" 
d="M-90 -78v-101q0 -40 -28 -68t-68 -28t-68 28t-28 68v53h-46v48h94v-101q0 -20 14 -34t34 -14t33.5 14t14.5 34v101h48z" />
    <glyph glyph-name="sarauuthai" unicode="&#xe39;" horiz-adv-x="0" 
d="M-90 -78v-101q0 -40 -28 -68t-68 -28t-68 28t-28 68v53h-46v48h94v-101q0 -20 14 -34t34 -14t33.5 14t14.5 34v101h48z" />
    <glyph glyph-name="phinthuthai" unicode="&#xda;" horiz-adv-x="0" 
d="M-90 -114q0 -15 -10.5 -25.5t-25.5 -10.5t-25.5 10.5t-10.5 25.5t10.5 25.5t25.5 10.5t25.5 -10.5t10.5 -25.5z" />
    <glyph glyph-name="phinthuthai" unicode="&#xe3a;" horiz-adv-x="0" 
d="M-90 -114q0 -15 -10.5 -25.5t-25.5 -10.5t-25.5 10.5t-10.5 25.5t10.5 25.5t25.5 10.5t25.5 -10.5t10.5 -25.5z" />
    <glyph glyph-name="nptp3.001march2007p" unicode="&#xdb;" horiz-adv-x="0" 
 />
    <glyph glyph-name="nptp3.001march2007p" unicode="&#xe3b;" horiz-adv-x="0" 
 />
    <glyph glyph-name="nptp3.001march2007u" unicode="&#xdc;" horiz-adv-x="0" 
 />
    <glyph glyph-name="nptp3.001march2007u" unicode="&#xe3c;" horiz-adv-x="0" 
 />
    <glyph glyph-name="nptp3.001march2007c" unicode="&#xdd;" horiz-adv-x="0" 
 />
    <glyph glyph-name="nptp3.001march2007c" unicode="&#xe3d;" horiz-adv-x="0" 
 />
    <glyph glyph-name="nptp3.001march2007r" unicode="&#xe3e;" horiz-adv-x="0" 
 />
    <glyph glyph-name="bahtthai" unicode="&#xdf;" 
d="M440 278q41 -16 66.5 -52t25.5 -83q0 -30 -11.5 -56t-31 -45.5t-45.5 -30.5t-56 -11h-77v-61h-48v61h-125h-48v48v191v48v192v48h48h125v61h48v-61h31q30 0 56 -11.5t45.5 -31t31 -45.5t11.5 -56q0 -31 -12.5 -58t-33.5 -47zM311 479v-192h32q19 0 36.5 7.5t30.5 21
t20.5 30.5t7.5 37q0 40 -28 68t-68 28h-31zM138 287h125v192h-125v-192zM263 48v191h-125v-191h125zM388 48q20 0 37.5 7.5t30.5 20.5t20.5 30t7.5 37q0 40 -28 68t-68 28h-77v-191h77z" />
    <glyph glyph-name="bahtthai" unicode="&#xe3f;" 
d="M440 278q41 -16 66.5 -52t25.5 -83q0 -30 -11.5 -56t-31 -45.5t-45.5 -30.5t-56 -11h-77v-61h-48v61h-125h-48v48v191v48v192v48h48h125v61h48v-61h31q30 0 56 -11.5t45.5 -31t31 -45.5t11.5 -56q0 -31 -12.5 -58t-33.5 -47zM311 479v-192h32q19 0 36.5 7.5t30.5 21
t20.5 30.5t7.5 37q0 40 -28 68t-68 28h-31zM138 287h125v192h-125v-192zM263 48v191h-125v-191h125zM388 48q20 0 37.5 7.5t30.5 20.5t20.5 30t7.5 37q0 40 -28 68t-68 28h-77v-191h77z" />
    <glyph glyph-name="saraethai" unicode="&#xe0;" horiz-adv-x="244" 
d="M138 48h46v-48h-46h-46h-2v631h48v-583z" />
    <glyph glyph-name="saraethai" unicode="&#xe40;" horiz-adv-x="244" 
d="M138 48h46v-48h-46h-46h-2v631h48v-583z" />
    <glyph glyph-name="saraaethai" unicode="&#xe1;" horiz-adv-x="431" 
d="M138 48h46v-48h-46h-46h-2v631h48v-583zM325 48h46v-48h-46h-46h-2v631h48v-583z" />
    <glyph glyph-name="saraaethai" unicode="&#xe41;" horiz-adv-x="431" 
d="M138 48h46v-48h-46h-46h-2v631h48v-583zM325 48h46v-48h-46h-46h-2v631h48v-583z" />
    <glyph glyph-name="saraothai" unicode="&#xe2;" horiz-adv-x="316" 
d="M196 48h46v-48h-92h-2v734q0 37 -22 67q-20 27 -50 37l-3 1q-27 6 -45 28t-18 51v1q2 35 24 57q24 24 58 24h219v-48h-219q-14 0 -24 -10t-10 -23v-1q0 -10 6 -19q4 -6 11 -9l15 -6q53 -18 81 -65q23 -35 25 -81v-690z" />
    <glyph glyph-name="saraothai" unicode="&#xe42;" horiz-adv-x="316" 
d="M196 48h46v-48h-92h-2v734q0 37 -22 67q-20 27 -50 37l-3 1q-27 6 -45 28t-18 51v1q2 35 24 57q24 24 58 24h219v-48h-219q-14 0 -24 -10t-10 -23v-1q0 -10 6 -19q4 -6 11 -9l15 -6q53 -18 81 -65q23 -35 25 -81v-690z" />
    <glyph glyph-name="saraaimaimuanthai" unicode="&#xe3;" horiz-adv-x="311" 
d="M158 1000q29 0 57 -11q14 -6 25 -14t22 -18q19 -18 32 -47q12 -26 12 -57q0 -44 -16 -83q-17 -41 -48 -72l-1 -1q-24 -24 -38 -57q-12 -32 -12 -64v-528h46v-48h-46h-46h-2v576q0 44 16 83q17 40 49 72q26 27 37 57q12 31 12 65q0 42 -28 70q-29 29 -71 29q-23 0 -39 -8
q-19 -8 -32 -21t-21 -32q-8 -16 -8 -39q0 -37 22 -63q20 -25 55 -35v-47q-25 3 -50 17q-22 12 -39 32q-9 10 -15.5 21t-11.5 23q-9 25 -9 53q0 30 11 57q12 27 32 47q22 20 47 32q28 11 58 11z" />
    <glyph glyph-name="saraaimaimuanthai" unicode="&#xe43;" horiz-adv-x="311" 
d="M158 1000q29 0 57 -11q14 -6 25 -14t22 -18q19 -18 32 -47q12 -26 12 -57q0 -44 -16 -83q-17 -41 -48 -72l-1 -1q-24 -24 -38 -57q-12 -32 -12 -64v-528h46v-48h-46h-46h-2v576q0 44 16 83q17 40 49 72q26 27 37 57q12 31 12 65q0 42 -28 70q-29 29 -71 29q-23 0 -39 -8
q-19 -8 -32 -21t-21 -32q-8 -16 -8 -39q0 -37 22 -63q20 -25 55 -35v-47q-25 3 -50 17q-22 12 -39 32q-9 10 -15.5 21t-11.5 23q-9 25 -9 53q0 30 11 57q12 27 32 47q22 20 47 32q28 11 58 11z" />
    <glyph glyph-name="saraaimaimalaithai" unicode="&#xe4;" horiz-adv-x="316" 
d="M299 910q12 -26 12 -57q0 -44 -16 -83q-17 -41 -49 -72l-1 -1q-26 -27 -37 -57q-12 -32 -12 -64v-528h46v-48h-46h-46h-2v576q0 44 16 83q17 40 49 72q26 27 37 57q12 31 12 65q0 40 -27 69q-5 4 -9.5 8.5t-8.5 7.5l-107 -106l-100 100v67v1l37 -37l63 -63l64 63l36 37
q12 -7 22 -13.5t19 -13.5q5 -4 11 -10.5l10 -10.5q8 -10 15 -20t12 -22z" />
    <glyph glyph-name="saraaimaimalaithai" unicode="&#xe44;" horiz-adv-x="316" 
d="M299 910q12 -26 12 -57q0 -44 -16 -83q-17 -41 -49 -72l-1 -1q-26 -27 -37 -57q-12 -32 -12 -64v-528h46v-48h-46h-46h-2v576q0 44 16 83q17 40 49 72q26 27 37 57q12 31 12 65q0 40 -27 69q-5 4 -9.5 8.5t-8.5 7.5l-107 -106l-100 100v67v1l37 -37l63 -63l64 63l36 37
q12 -7 22 -13.5t19 -13.5q5 -4 11 -10.5l10 -10.5q8 -10 15 -20t12 -22z" />
    <glyph glyph-name="lakkhangyaothai" unicode="&#xe5;" horiz-adv-x="488" 
d="M214 641q38 0 71.5 -14.5t58.5 -39.5t39.5 -58.5t14.5 -71.5v-678h-47v678q0 28 -11 53t-29.5 43.5t-43.5 29.5t-53 11q-29 0 -53.5 -11t-43.5 -29.5t-29.5 -43.5t-10.5 -53h-47q0 38 14.5 71.5t39.5 58.5t58.5 39.5t71.5 14.5z" />
    <glyph glyph-name="lakkhangyaothai" unicode="&#xe45;" horiz-adv-x="488" 
d="M214 641q38 0 71.5 -14.5t58.5 -39.5t39.5 -58.5t14.5 -71.5v-678h-47v678q0 28 -11 53t-29.5 43.5t-43.5 29.5t-53 11q-29 0 -53.5 -11t-43.5 -29.5t-29.5 -43.5t-10.5 -53h-47q0 38 14.5 71.5t39.5 58.5t58.5 39.5t71.5 14.5z" />
    <glyph glyph-name="maiyamokthai" unicode="&#xe6;" horiz-adv-x="602" 
d="M432 500q37 -31 58.5 -75t21.5 -95v-1v-23v-527h-48v527v23v1q0 42 -18 77t-48 59l-107 -107l-107 107q-30 -24 -48 -59t-18 -77v-1v-23h-1q1 -35 25 -59t59 -24v-49q-27 0 -51 10.5t-42 28.5t-28 42t-10 51v23v1q0 51 21.5 95t58.5 75q9 8 19 15t21 12l37 -36l64 -64
l64 64l36 36q11 -5 21.5 -12t19.5 -15z" />
    <glyph glyph-name="maiyamokthai" unicode="&#xe46;" horiz-adv-x="602" 
d="M432 500q37 -31 58.5 -75t21.5 -95v-1v-23v-527h-48v527v23v1q0 42 -18 77t-48 59l-107 -107l-107 107q-30 -24 -48 -59t-18 -77v-1v-23h-1q1 -35 25 -59t59 -24v-49q-27 0 -51 10.5t-42 28.5t-28 42t-10 51v23v1q0 51 21.5 95t58.5 75q9 8 19 15t21 12l37 -36l64 -64
l64 64l36 36q11 -5 21.5 -12t19.5 -15z" />
    <glyph glyph-name="maitaikhuthai" unicode="&#xe7;" horiz-adv-x="0" 
d="M-232 878q-31 0 -50.5 -11.5t-19.5 -41.5v-21q0 -21 16 -39l67 67l68 -67q16 18 16 39v28h43v-28q0 -30 -15.5 -54t-47.5 -41l-64 62l-63 -62q-33 17 -48 41.5t-15 53.5v20q0 45 23 66.5t60 27t81.5 -1t88.5 -17.5v-46v1q-3 1 -19.5 5t-38 8t-44 7.5t-38.5 3.5z" />
    <glyph glyph-name="maitaikhuthai" unicode="&#xe47;" horiz-adv-x="0" 
d="M-232 878q-31 0 -50.5 -11.5t-19.5 -41.5v-21q0 -21 16 -39l67 67l68 -67q16 18 16 39v28h43v-28q0 -30 -15.5 -54t-47.5 -41l-64 62l-63 -62q-33 17 -48 41.5t-15 53.5v20q0 45 23 66.5t60 27t81.5 -1t88.5 -17.5v-46v1q-3 1 -19.5 5t-38 8t-44 7.5t-38.5 3.5z" />
    <glyph glyph-name="maiekthai" unicode="&#xe8;" horiz-adv-x="0" 
d="M-90 899h-48v132h48v-132z" />
    <glyph glyph-name="maiekthai" unicode="&#xe48;" horiz-adv-x="0" 
d="M-90 899h-48v132h48v-132z" />
    <glyph glyph-name="maithothai" unicode="&#xe9;" horiz-adv-x="0" 
d="M-218 942h198v-43h-241v73h-44v43h87v-73z" />
    <glyph glyph-name="maithothai" unicode="&#xe49;" horiz-adv-x="0" 
d="M-218 942h198v-43h-241v73h-44v43h87v-73z" />
    <glyph glyph-name="maitrithai" unicode="&#xea;" horiz-adv-x="-1" 
d="M-51 918v-43h-103v51q0 22 -15 40l-68 -68l-69 68q-15 -18 -15 -40v-51h-44v51q0 31 16 55.5t48 40.5l64 -62l63 62q33 -17 48.5 -41.5t15.5 -54.5v-8h59z" />
    <glyph glyph-name="maitrithai" unicode="&#xe4a;" horiz-adv-x="-1" 
d="M-51 918v-43h-103v51q0 22 -15 40l-68 -68l-69 68q-15 -18 -15 -40v-51h-44v51q0 31 16 55.5t48 40.5l64 -62l63 62q33 -17 48.5 -41.5t15.5 -54.5v-8h59z" />
    <glyph glyph-name="maichattawathai" unicode="&#xeb;" horiz-adv-x="-1" 
d="M-41 950h-52v-51h-43v51h-51v44h51v51h43v-51h52v-44z" />
    <glyph glyph-name="maichattawathai" unicode="&#xe4b;" horiz-adv-x="-1" 
d="M-41 950h-52v-51h-43v51h-51v44h51v51h43v-51h52v-44z" />
    <glyph glyph-name="thanthakhatthai" unicode="&#xec;" horiz-adv-x="-1" 
d="M7 1030v-48h-158q-16 -2 -27 -13t-11 -28v-42h-48v42q0 21 8.5 38t21 28t26.5 17t26 6h162z" />
    <glyph glyph-name="thanthakhatthai" unicode="&#xe4c;" horiz-adv-x="-1" 
d="M7 1030v-48h-158q-16 -2 -27 -13t-11 -28v-42h-48v42q0 21 8.5 38t21 28t26.5 17t26 6h162z" />
    <glyph glyph-name="nikhahitthai" unicode="&#xed;" horiz-adv-x="-1" 
d="M-123 853q30 0 51 -21t21 -51t-21 -51t-51 -21t-51 21t-21 51t21 51t51 21zM-123 758q11 0 17.5 7t6.5 17t-6.5 17t-17.5 7q-10 0 -17 -7t-7 -17t7 -17t17 -7z" />
    <glyph glyph-name="nikhahitthai" unicode="&#xe4d;" horiz-adv-x="-1" 
d="M-123 853q30 0 51 -21t21 -51t-21 -51t-51 -21t-51 21t-21 51t21 51t51 21zM-123 758q11 0 17.5 7t6.5 17t-6.5 17t-17.5 7q-10 0 -17 -7t-7 -17t7 -17t17 -7z" />
    <glyph glyph-name="yamakkanthai" unicode="&#xee;" horiz-adv-x="0" 
d="M-159 612q-15 12 -15 29q0 16 10.5 30t27.5 25t38.5 17t43.5 6q15 -1 31 -2.5t31 -7.5l11 -4v-32q-13 4 -22.5 7.5t-17.5 5t-15.5 2.5t-17.5 1q-14 0 -29.5 -4t-29 -11t-22.5 -15.5t-9 -17.5q0 -12 38 -21l11 -4v-25h-15q-2 0 -5.5 0.5t-5.5 0.5q-9 0 -19.5 -5t-19.5 -12
t-15 -14.5t-6 -13.5q0 -16 13.5 -26t35.5 -10q40 0 57 30l5 8h31l-9 -22q-25 -46 -84 -46q-17 0 -31.5 5t-25 14t-16.5 21t-6 26q0 39 52 65z" />
    <glyph glyph-name="yamakkanthai" unicode="&#xe4e;" horiz-adv-x="0" 
d="M-159 612q-15 12 -15 29q0 16 10.5 30t27.5 25t38.5 17t43.5 6q15 -1 31 -2.5t31 -7.5l11 -4v-32q-13 4 -22.5 7.5t-17.5 5t-15.5 2.5t-17.5 1q-14 0 -29.5 -4t-29 -11t-22.5 -15.5t-9 -17.5q0 -12 38 -21l11 -4v-25h-15q-2 0 -5.5 0.5t-5.5 0.5q-9 0 -19.5 -5t-19.5 -12
t-15 -14.5t-6 -13.5q0 -16 13.5 -26t35.5 -10q40 0 57 30l5 8h31l-9 -22q-25 -46 -84 -46q-17 0 -31.5 5t-25 14t-16.5 21t-6 26q0 39 52 65z" />
    <glyph glyph-name="fongmanthai" unicode="&#xef;" horiz-adv-x="472" 
d="M272 230q0 -14 -10.5 -25t-25.5 -11t-25.5 11t-10.5 25q0 15 10.5 25.5t25.5 10.5t25.5 -10.5t10.5 -25.5zM236 377q30 0 56.5 -11.5t46.5 -31.5t31.5 -46.5t11.5 -56.5t-11.5 -57t-31.5 -46.5t-46.5 -31t-56.5 -11.5t-57 11.5t-46.5 31t-31 46.5t-11.5 57t11.5 56.5
t31 46.5t46.5 31.5t57 11.5zM235 133q41 0 69.5 28.5t28.5 69.5t-28.5 69.5t-69.5 28.5t-69.5 -28.5t-28.5 -69.5t28.5 -69.5t69.5 -28.5z" />
    <glyph glyph-name="fongmanthai" unicode="&#xe4f;" horiz-adv-x="472" 
d="M272 230q0 -14 -10.5 -25t-25.5 -11t-25.5 11t-10.5 25q0 15 10.5 25.5t25.5 10.5t25.5 -10.5t10.5 -25.5zM236 377q30 0 56.5 -11.5t46.5 -31.5t31.5 -46.5t11.5 -56.5t-11.5 -57t-31.5 -46.5t-46.5 -31t-56.5 -11.5t-57 11.5t-46.5 31t-31 46.5t-11.5 57t11.5 56.5
t31 46.5t46.5 31.5t57 11.5zM235 133q41 0 69.5 28.5t28.5 69.5t-28.5 69.5t-69.5 28.5t-69.5 -28.5t-28.5 -69.5t28.5 -69.5t69.5 -28.5z" />
    <glyph glyph-name="zerothai" unicode="&#xf0;" 
d="M311 537q46 0 86 -17.5t70 -47.5t47.5 -70t17.5 -86v-105q0 -46 -17.5 -86t-47.5 -70t-70 -47.5t-86 -17.5t-86 17.5t-70 47.5t-47.5 70t-17.5 86v105q0 46 17.5 86t47.5 70t70 47.5t86 17.5zM311 38q36 0 67.5 13.5t55 37t37 55t13.5 67.5v105q0 36 -13.5 67.5t-37 55
t-55 37t-67.5 13.5t-67.5 -13.5t-55 -37t-37 -55t-13.5 -67.5v-105q0 -36 13.5 -67.5t37 -55t55 -37t67.5 -13.5z" />
    <glyph glyph-name="zerothai" unicode="&#xe50;" 
d="M311 537q46 0 86 -17.5t70 -47.5t47.5 -70t17.5 -86v-105q0 -46 -17.5 -86t-47.5 -70t-70 -47.5t-86 -17.5t-86 17.5t-70 47.5t-47.5 70t-17.5 86v105q0 46 17.5 86t47.5 70t70 47.5t86 17.5zM311 38q36 0 67.5 13.5t55 37t37 55t13.5 67.5v105q0 36 -13.5 67.5t-37 55
t-55 37t-67.5 13.5t-67.5 -13.5t-55 -37t-37 -55t-13.5 -67.5v-105q0 -36 13.5 -67.5t37 -55t55 -37t67.5 -13.5z" />
    <glyph glyph-name="onethai" unicode="&#xf1;" 
d="M311 537q46 0 86 -17t70 -47t47.5 -70t17.5 -86v-106q0 -46 -17.5 -86t-47.5 -70t-70 -47.5t-86 -17.5t-86 17.5t-70 47.5t-47.5 70t-17.5 86h48q0 -36 13.5 -67.5t37 -55t55 -37t67.5 -13.5t67.5 13.5t55 37t37 55t13.5 67.5v105q0 36 -13.5 67.5t-37 55t-55 37
t-67.5 13.5q-32 0 -60.5 -11t-51 -30t-37.5 -45t-21 -56q0 -5 1 -10t4 -10q17 -29 96 -29v-48q-105 0 -137 52q-4 7 -7 14q-4 10 -5 19.5t0 18.5q2 17 6.5 28.5t4.5 12.5q12 31 32.5 57t47.5 45t59.5 29.5t67.5 10.5z" />
    <glyph glyph-name="onethai" unicode="&#xe51;" 
d="M311 537q46 0 86 -17t70 -47t47.5 -70t17.5 -86v-106q0 -46 -17.5 -86t-47.5 -70t-70 -47.5t-86 -17.5t-86 17.5t-70 47.5t-47.5 70t-17.5 86h48q0 -36 13.5 -67.5t37 -55t55 -37t67.5 -13.5t67.5 13.5t55 37t37 55t13.5 67.5v105q0 36 -13.5 67.5t-37 55t-55 37
t-67.5 13.5q-32 0 -60.5 -11t-51 -30t-37.5 -45t-21 -56q0 -5 1 -10t4 -10q17 -29 96 -29v-48q-105 0 -137 52q-4 7 -7 14q-4 10 -5 19.5t0 18.5q2 17 6.5 28.5t4.5 12.5q12 31 32.5 57t47.5 45t59.5 29.5t67.5 10.5z" />
    <glyph glyph-name="twothai" unicode="&#xf2;" 
d="M452 510q37 -31 58.5 -75t21.5 -95v-1v-23v-105q0 -46 -17.5 -86t-47.5 -70t-70 -47.5t-86 -17.5t-86 17.5t-70 47.5t-47.5 70t-17.5 86v420h48v-420q0 -36 13.5 -67.5t37 -55t55 -37t67.5 -13.5t67.5 13.5t55 37t37 55t13.5 67.5v105v23v1q0 42 -18 77t-48 59l-25 -25
l-34 -34l-34 34l-25 25q-30 -24 -48 -59t-18 -77v-1v-23h-48v23v1q0 51 21.5 95t58.5 75q17 14 41 27l36 -36l16 -16l16 16l36 36q24 -13 41 -27z" />
    <glyph glyph-name="twothai" unicode="&#xe52;" 
d="M452 510q37 -31 58.5 -75t21.5 -95v-1v-23v-105q0 -46 -17.5 -86t-47.5 -70t-70 -47.5t-86 -17.5t-86 17.5t-70 47.5t-47.5 70t-17.5 86v420h48v-420q0 -36 13.5 -67.5t37 -55t55 -37t67.5 -13.5t67.5 13.5t55 37t37 55t13.5 67.5v105v23v1q0 42 -18 77t-48 59l-25 -25
l-34 -34l-34 34l-25 25q-30 -24 -48 -59t-18 -77v-1v-23h-48v23v1q0 51 21.5 95t58.5 75q17 14 41 27l36 -36l16 -16l16 16l36 36q24 -13 41 -27z" />
    <glyph glyph-name="threethai" unicode="&#xf3;" 
d="M452 510q37 -31 58.5 -75t21.5 -95v-1v-23v-316h-48v316v23v1q0 42 -18 77t-48 59l-107 -107l-107 107q-30 -24 -48 -59t-18 -77v-1v-23v-105q0 -36 13.5 -67.5t37 -55t55 -37t67.5 -13.5v-48q-46 0 -86 17.5t-70 47.5t-47.5 70t-17.5 86v105v23v1q0 51 21.5 95t58.5 75
q9 8 19.5 15t21.5 12l36 -36l64 -64l64 64l36 36q11 -5 21.5 -12t19.5 -15z" />
    <glyph glyph-name="threethai" unicode="&#xe53;" 
d="M452 510q37 -31 58.5 -75t21.5 -95v-1v-23v-316h-48v316v23v1q0 42 -18 77t-48 59l-107 -107l-107 107q-30 -24 -48 -59t-18 -77v-1v-23v-105q0 -36 13.5 -67.5t37 -55t55 -37t67.5 -13.5v-48q-46 0 -86 17.5t-70 47.5t-47.5 70t-17.5 86v105v23v1q0 51 21.5 95t58.5 75
q9 8 19.5 15t21.5 12l36 -36l64 -64l64 64l36 36q11 -5 21.5 -12t19.5 -15z" />
    <glyph glyph-name="fourthai" unicode="&#xf4;" 
d="M359 211q0 -36 13.5 -67.5t37 -55t55 -37t67.5 -13.5v-48h-221q-46 0 -86 17.5t-70 47.5t-47.5 70t-17.5 86v96q0 46 17.5 86t47.5 70t70 47t86 17q27 0 53 7.5t48.5 21.5t40.5 33t28 42h51q-11 -33 -33 -61t-51.5 -48t-64.5 -31.5t-72 -11.5q-36 0 -67.5 -13.5t-55 -37
t-37 -55t-13.5 -67.5v-95q0 -36 13.5 -67.5t37 -55t55 -37t67.5 -13.5h83q-38 30 -60.5 75t-22.5 98h48z" />
    <glyph glyph-name="fourthai" unicode="&#xe54;" 
d="M359 211q0 -36 13.5 -67.5t37 -55t55 -37t67.5 -13.5v-48h-221q-46 0 -86 17.5t-70 47.5t-47.5 70t-17.5 86v96q0 46 17.5 86t47.5 70t70 47t86 17q27 0 53 7.5t48.5 21.5t40.5 33t28 42h51q-11 -33 -33 -61t-51.5 -48t-64.5 -31.5t-72 -11.5q-36 0 -67.5 -13.5t-55 -37
t-37 -55t-13.5 -67.5v-95q0 -36 13.5 -67.5t37 -55t55 -37t67.5 -13.5h83q-38 30 -60.5 75t-22.5 98h48z" />
    <glyph glyph-name="fivethai" unicode="&#xf5;" 
d="M359 211q0 -36 13.5 -67.5t37 -55t55 -37t67.5 -13.5v-48h-221q-46 0 -86 17.5t-70 47.5t-47.5 70t-17.5 86v96q0 37 11.5 70.5t32 61t49 47.5t62.5 31q-10 16 -10 38q0 32 22 54t54 22t54 -22t22 -54q0 -8 -1 -12q32 13 56.5 36t38.5 52h51q-11 -33 -33 -61t-51.5 -48
t-64.5 -31.5t-72 -11.5h-4q-35 -1 -66 -15t-54 -37t-36 -54.5t-13 -66.5v-95q0 -36 13.5 -67.5t37 -55t55 -37t67.5 -13.5h83q-38 30 -60.5 75t-22.5 98h48zM283 555q0 -11 7 -19t18 -9h3q11 0 19.5 8.5t8.5 19.5t-8.5 19.5t-19.5 8.5q-12 0 -20 -8.5t-8 -19.5z" />
    <glyph glyph-name="fivethai" unicode="&#xe55;" 
d="M359 211q0 -36 13.5 -67.5t37 -55t55 -37t67.5 -13.5v-48h-221q-46 0 -86 17.5t-70 47.5t-47.5 70t-17.5 86v96q0 37 11.5 70.5t32 61t49 47.5t62.5 31q-10 16 -10 38q0 32 22 54t54 22t54 -22t22 -54q0 -8 -1 -12q32 13 56.5 36t38.5 52h51q-11 -33 -33 -61t-51.5 -48
t-64.5 -31.5t-72 -11.5h-4q-35 -1 -66 -15t-54 -37t-36 -54.5t-13 -66.5v-95q0 -36 13.5 -67.5t37 -55t55 -37t67.5 -13.5h83q-38 30 -60.5 75t-22.5 98h48zM283 555q0 -11 7 -19t18 -9h3q11 0 19.5 8.5t8.5 19.5t-8.5 19.5t-19.5 8.5q-12 0 -20 -8.5t-8 -19.5z" />
    <glyph glyph-name="sixthai" unicode="&#xf6;" horiz-adv-x="562" 
d="M251 527q46 0 86 -17t70 -47t47.5 -70t17.5 -86v-96q0 -46 -17.5 -86t-47.5 -70t-70 -47.5t-86 -17.5q-30 0 -57 11.5t-46.5 31t-31 46.5t-11.5 57t11.5 57t31 46.5t46.5 31t57 11.5v-48q-41 0 -69.5 -28.5t-28.5 -69.5t28.5 -69.5t69.5 -28.5q36 0 67.5 13.5t55 37
t37 55t13.5 67.5v95q0 36 -13.5 67.5t-37 55t-55 37t-67.5 13.5q-53 0 -97 -30l-26 26v10q0 41 -28.5 69.5t-69.5 28.5v48q54 0 93.5 -33.5t49.5 -84.5q37 14 78 14z" />
    <glyph glyph-name="sixthai" unicode="&#xe56;" horiz-adv-x="562" 
d="M251 527q46 0 86 -17t70 -47t47.5 -70t17.5 -86v-96q0 -46 -17.5 -86t-47.5 -70t-70 -47.5t-86 -17.5q-30 0 -57 11.5t-46.5 31t-31 46.5t-11.5 57t11.5 57t31 46.5t46.5 31t57 11.5v-48q-41 0 -69.5 -28.5t-28.5 -69.5t28.5 -69.5t69.5 -28.5q36 0 67.5 13.5t55 37
t37 55t13.5 67.5v95q0 36 -13.5 67.5t-37 55t-55 37t-67.5 13.5q-53 0 -97 -30l-26 26v10q0 41 -28.5 69.5t-69.5 28.5v48q54 0 93.5 -33.5t49.5 -84.5q37 14 78 14z" />
    <glyph glyph-name="seventhai" unicode="&#xf7;" horiz-adv-x="718" 
d="M580 631h48v-535q0 -40 -28 -68t-68 -28h-48v316v23v1q0 42 -18 77t-48 59l-107 -107l-107 107q-30 -24 -48 -59t-18 -77v-1v-23v-105q0 -36 13.5 -67.5t37 -55t55 -37t67.5 -13.5v-48q-46 0 -86 17.5t-70 47.5t-47.5 70t-17.5 86v105v23v1q0 51 21.5 95t58.5 75
q9 8 19.5 15t21.5 12l36 -36l64 -64l64 64l36 36q11 -5 21.5 -12t19.5 -15q37 -31 58.5 -75t21.5 -95v-1v-23v-268q20 0 34 14t14 34v535z" />
    <glyph glyph-name="seventhai" unicode="&#xe57;" horiz-adv-x="718" 
d="M580 631h48v-535q0 -40 -28 -68t-68 -28h-48v316v23v1q0 42 -18 77t-48 59l-107 -107l-107 107q-30 -24 -48 -59t-18 -77v-1v-23v-105q0 -36 13.5 -67.5t37 -55t55 -37t67.5 -13.5v-48q-46 0 -86 17.5t-70 47.5t-47.5 70t-17.5 86v105v23v1q0 51 21.5 95t58.5 75
q9 8 19.5 15t21.5 12l36 -36l64 -64l64 64l36 36q11 -5 21.5 -12t19.5 -15q37 -31 58.5 -75t21.5 -95v-1v-23v-268q20 0 34 14t14 34v535z" />
    <glyph glyph-name="eightthai" unicode="&#xf8;" 
d="M532 221v-33v-1q0 -51 -21.5 -95t-58.5 -75q-9 -8 -19.5 -15t-21.5 -12l-36 36l-64 64l-64 -64l-36 -36q-11 5 -21.5 12t-19.5 15q-37 31 -58.5 75t-21.5 95v1v119q0 46 17.5 86t47.5 70t70 47t86 17q27 0 53 7.5t48.5 21.5t40.5 33t28 42h51q-11 -33 -33 -61t-51.5 -48
t-64.5 -31.5t-72 -11.5q-36 0 -67.5 -13.5t-55 -37t-37 -55t-13.5 -67.5v-118v-1q0 -42 18 -77t48 -59l107 107l107 -107q30 24 48 59t18 77v1v33h-63v48h111v-48z" />
    <glyph glyph-name="eightthai" unicode="&#xe58;" 
d="M532 221v-33v-1q0 -51 -21.5 -95t-58.5 -75q-9 -8 -19.5 -15t-21.5 -12l-36 36l-64 64l-64 -64l-36 -36q-11 5 -21.5 12t-19.5 15q-37 31 -58.5 75t-21.5 95v1v119q0 46 17.5 86t47.5 70t70 47t86 17q27 0 53 7.5t48.5 21.5t40.5 33t28 42h51q-11 -33 -33 -61t-51.5 -48
t-64.5 -31.5t-72 -11.5q-36 0 -67.5 -13.5t-55 -37t-37 -55t-13.5 -67.5v-118v-1q0 -42 18 -77t48 -59l107 107l107 -107q30 24 48 59t18 77v1v33h-63v48h111v-48z" />
    <glyph glyph-name="ninethai" unicode="&#xf9;" horiz-adv-x="658" 
d="M628 631q-11 -33 -33 -61t-51.5 -48t-64.5 -31.5t-72 -11.5q-26 -1 -45.5 -17.5t-24.5 -41.5l152 -402l-44 -17l-154 404l-4 10l-4 12l-3 7q-8 20 -26.5 32.5t-41.5 12.5q-31 0 -52.5 -22t-21.5 -52v-269q0 -41 28.5 -69.5t69.5 -28.5v-48q-30 0 -57 11.5t-46.5 31
t-31 46.5t-11.5 57v269q0 25 9.5 47.5t26 39t39 26t47.5 9.5q30 0 56 -13.5t43 -36.5q17 23 42.5 36.5t55.5 13.5q26 0 52 8t48.5 22t40 32.5t27.5 41.5h51z" />
    <glyph glyph-name="ninethai" unicode="&#xe59;" horiz-adv-x="658" 
d="M628 631q-11 -33 -33 -61t-51.5 -48t-64.5 -31.5t-72 -11.5q-26 -1 -45.5 -17.5t-24.5 -41.5l152 -402l-44 -17l-154 404l-4 10l-4 12l-3 7q-8 20 -26.5 32.5t-41.5 12.5q-31 0 -52.5 -22t-21.5 -52v-269q0 -41 28.5 -69.5t69.5 -28.5v-48q-30 0 -57 11.5t-46.5 31
t-31 46.5t-11.5 57v269q0 25 9.5 47.5t26 39t39 26t47.5 9.5q30 0 56 -13.5t43 -36.5q17 23 42.5 36.5t55.5 13.5q26 0 52 8t48.5 22t40 32.5t27.5 41.5h51z" />
    <glyph glyph-name="angkhankhuthai" unicode="&#xfa;" horiz-adv-x="633" 
d="M379 495q32 -31 50.5 -72t18.5 -89v-1v-23v-531h-48v531v23v1q0 32 -11 61t-31 52q-20 -30 -52 -48t-70 -18q-30 0 -56.5 11.5t-46.5 31t-31.5 46.5t-11.5 57h48q0 -41 28.5 -69.5t69.5 -28.5t69.5 28.5t28.5 69.5h1q9 -5 17 -10.5t16 -12.5q3 -2 5.5 -4.5t5.5 -4.5z
M495 400h48v-620h-48v620z" />
    <glyph glyph-name="angkhankhuthai" unicode="&#xe5a;" horiz-adv-x="633" 
d="M379 495q32 -31 50.5 -72t18.5 -89v-1v-23v-531h-48v531v23v1q0 32 -11 61t-31 52q-20 -30 -52 -48t-70 -18q-30 0 -56.5 11.5t-46.5 31t-31.5 46.5t-11.5 57h48q0 -41 28.5 -69.5t69.5 -28.5t69.5 28.5t28.5 69.5h1q9 -5 17 -10.5t16 -12.5q3 -2 5.5 -4.5t5.5 -4.5z
M495 400h48v-620h-48v620z" />
    <glyph glyph-name="khomutthai" unicode="&#xfb;" horiz-adv-x="660" 
 />
    <glyph glyph-name="khomutthai" unicode="&#xe5b;" horiz-adv-x="660" 
 />
    <glyph glyph-name="saraulowthai" unicode="&#xfc;" horiz-adv-x="1" 
d="M-92 -320h3v-60v-136h-48v136v12h-46v48h46h45z" />
    <glyph glyph-name="saraulowthai" unicode="&#xf718;" horiz-adv-x="1" 
d="M-92 -320h3v-60v-136h-48v136v12h-46v48h46h45z" />
    <glyph glyph-name="sarauulowthai" unicode="&#xfd;" horiz-adv-x="1" 
d="M-89 -320v-124q0 -30 -21 -51t-51 -21t-51 21t-21 51v76h-46v48h46h29h19v-124q0 -10 7 -17t17 -7t17 7t7 17v124h48z" />
    <glyph glyph-name="sarauulowthai" unicode="&#xf719;" horiz-adv-x="1" 
d="M-89 -320v-124q0 -30 -21 -51t-51 -21t-51 21t-21 51v76h-46v48h46h29h19v-124q0 -10 7 -17t17 -7t17 7t7 17v124h48z" />
    <glyph glyph-name="phinthulowthai" unicode="&#xfe;" horiz-adv-x="1" 
d="M-89 -356q0 -15 -10.5 -25.5t-25.5 -10.5t-25.5 10.5t-10.5 25.5t10.5 25.5t25.5 10.5t25.5 -10.5t10.5 -25.5z" />
    <glyph glyph-name="phinthulowthai" unicode="&#xf71a;" horiz-adv-x="1" 
d="M-89 -356q0 -15 -10.5 -25.5t-25.5 -10.5t-25.5 10.5t-10.5 25.5t10.5 25.5t25.5 10.5t25.5 -10.5t10.5 -25.5z" />
    <glyph glyph-name="Naipol" unicode="&#xff;" horiz-adv-x="948" 
 />
    <glyph glyph-name="lochula.short" 
d="M532 609q0 -29 -13 -53.5t-34 -41.5q21 -16 34 -40.5t13 -53.5v-244v-1q0 -63 -28 -106.5t-76 -78.5l-117 437l-117 -437q-54 34 -79 83t-25 102v1v454h48v-454v-1q0 -54 31 -97l105 397h73l106 -397q31 43 31 97v1v244q0 29 -20.5 49.5t-49.5 20.5v48q29 0 49.5 20.5
t20.5 49.5v1v32h48v-32v0z" />
    <glyph glyph-name="saraamleft" horiz-adv-x="488" 
d="M-199 862q34 0 57.5 -23.5t23.5 -57.5t-23.5 -57.5t-57.5 -23.5t-57.5 23.5t-23.5 57.5t23.5 57.5t57.5 23.5zM-199 738q18 0 30.5 12.5t12.5 30.5t-12.5 30.5t-30.5 12.5t-30.5 -12.5t-12.5 -30.5t12.5 -30.5t30.5 -12.5zM214 641q38 0 71.5 -14.5t58.5 -39.5
t39.5 -58.5t14.5 -71.5v-457h-47v457q0 28 -11 53t-29.5 43.5t-43.5 29.5t-53 11q-29 0 -53.5 -11t-43.5 -29.5t-29.5 -43.5t-10.5 -53h-47q0 38 14.5 71.5t39.5 58.5t58.5 39.5t71.5 14.5z" />
    <glyph glyph-name="uni25CC" unicode="&#x25cc;" horiz-adv-x="512" 
d="M257 46q9 0 16.5 -6.5t7.5 -16.5q0 -9 -7.5 -16t-16.5 -7q-10 0 -16.5 7t-6.5 16q0 10 6.5 16.5t16.5 6.5zM441 233q11 0 17.5 -7t6.5 -16q0 -10 -6 -17t-18 -7q-9 0 -15.5 7t-6.5 17q0 9 6.5 16t15.5 7zM71 233q8 0 15.5 -7t7.5 -16q0 -10 -7 -17t-16 -7q-10 0 -17 7
t-7 17q0 9 7 16t17 7zM257 418q9 0 16.5 -6.5t7.5 -15.5q0 -10 -7.5 -16.5t-16.5 -6.5q-10 0 -16.5 6.5t-6.5 16.5q0 9 6.5 15.5t16.5 6.5zM126 363q10 0 17 -6t7 -18q0 -9 -7 -16t-17 -7q-9 0 -16 7t-7 16q0 12 7 18t16 6zM387 363q9 0 16 -6t7 -18q0 -9 -6.5 -16t-16.5 -7
t-17 7t-7 16q0 12 7 18t17 6zM387 102q9 0 16 -6.5t7 -16.5t-6.5 -16.5t-16.5 -6.5t-17 6.5t-7 16.5t7 16.5t17 6.5zM126 102q10 0 17 -6.5t7 -16.5t-7 -16.5t-17 -6.5q-9 0 -16 6.5t-7 16.5t7 16.5t16 6.5z" />
    <glyph glyph-name="yamakkanleftthai" horiz-adv-x="0" 
d="M-266 612q-15 12 -15 29q0 16 11 30.5t28 25t38.5 16.5t42.5 6q16 0 31.5 -2.5t30.5 -7.5l10 -4v-32q-13 4 -22 7.5t-17 5t-15.5 2.5t-17.5 1q-13 0 -29 -4t-29.5 -11t-22.5 -15.5t-9 -17.5q0 -12 37 -21l12 -4v-25h-16q-1 0 -4 0.5t-6 0.5q-10 0 -21 -5t-19.5 -12.5
t-14 -15t-5.5 -12.5q0 -16 14 -26t34 -10q42 0 58 30l4 8h32l-10 -22q-25 -46 -84 -46q-17 0 -31.5 5t-25 14t-16.5 21t-6 26q0 39 53 65z" />
    <glyph glyph-name="ZWSP" unicode="&#x200b;" horiz-adv-x="0" 
 />
  </font>
</defs>
</svg>
